<mxfile host="app.diagrams.net" modified="2022-05-22T03:22:30.143Z" agent="5.0 (Windows NT 10.0; Win64; x64) AppleWebKit/537.36 (KHTML, like Gecko) Chrome/101.0.4951.64 Safari/537.36 Edg/101.0.1210.53" etag="PlqzvdDLd_vZXERdzLF5" version="18.1.1" type="github">
  <diagram id="OPUGuVJKlIoPCt-xv4Op" name="c++">
    <mxGraphModel dx="3008" dy="1895" grid="1" gridSize="10" guides="1" tooltips="1" connect="1" arrows="1" fold="1" page="1" pageScale="1" pageWidth="827" pageHeight="1169" math="0" shadow="0">
      <root>
        <mxCell id="0" />
        <mxCell id="1" parent="0" />
        <mxCell id="XOiMRAzDSWEchkISfKKq-11" style="edgeStyle=orthogonalEdgeStyle;rounded=0;orthogonalLoop=1;jettySize=auto;html=1;exitX=1;exitY=0.5;exitDx=0;exitDy=0;" parent="1" source="Bpbho1CVXNQYabQPxv-8-1" target="XOiMRAzDSWEchkISfKKq-2" edge="1">
          <mxGeometry relative="1" as="geometry" />
        </mxCell>
        <mxCell id="WuHR0r5tEEKMtNBvD81C-3" style="edgeStyle=orthogonalEdgeStyle;rounded=0;orthogonalLoop=1;jettySize=auto;html=1;exitX=0;exitY=0.5;exitDx=0;exitDy=0;" parent="1" source="Bpbho1CVXNQYabQPxv-8-1" target="WuHR0r5tEEKMtNBvD81C-2" edge="1">
          <mxGeometry relative="1" as="geometry" />
        </mxCell>
        <mxCell id="Bpbho1CVXNQYabQPxv-8-1" value="函数模板类型推导" style="rounded=0;whiteSpace=wrap;html=1;" parent="1" vertex="1">
          <mxGeometry x="10" y="420" width="120" height="60" as="geometry" />
        </mxCell>
        <mxCell id="XOiMRAzDSWEchkISfKKq-12" style="edgeStyle=orthogonalEdgeStyle;rounded=0;orthogonalLoop=1;jettySize=auto;html=1;" parent="1" source="Bpbho1CVXNQYabQPxv-8-2" target="XOiMRAzDSWEchkISfKKq-9" edge="1">
          <mxGeometry relative="1" as="geometry" />
        </mxCell>
        <mxCell id="WuHR0r5tEEKMtNBvD81C-4" style="edgeStyle=orthogonalEdgeStyle;rounded=0;orthogonalLoop=1;jettySize=auto;html=1;exitX=0;exitY=0.5;exitDx=0;exitDy=0;entryX=0.5;entryY=1;entryDx=0;entryDy=0;" parent="1" source="Bpbho1CVXNQYabQPxv-8-2" target="WuHR0r5tEEKMtNBvD81C-2" edge="1">
          <mxGeometry relative="1" as="geometry" />
        </mxCell>
        <mxCell id="Bpbho1CVXNQYabQPxv-8-2" value="auto类型推导" style="rounded=0;whiteSpace=wrap;html=1;" parent="1" vertex="1">
          <mxGeometry x="10" y="660" width="120" height="60" as="geometry" />
        </mxCell>
        <mxCell id="Bpbho1CVXNQYabQPxv-8-3" value="decltype&lt;br&gt;/decltype(auto)类型推导" style="rounded=0;whiteSpace=wrap;html=1;" parent="1" vertex="1">
          <mxGeometry x="10" y="820" width="120" height="60" as="geometry" />
        </mxCell>
        <mxCell id="XOiMRAzDSWEchkISfKKq-14" style="edgeStyle=orthogonalEdgeStyle;rounded=0;orthogonalLoop=1;jettySize=auto;html=1;exitX=1;exitY=0.5;exitDx=0;exitDy=0;entryX=0;entryY=0.5;entryDx=0;entryDy=0;" parent="1" source="XOiMRAzDSWEchkISfKKq-2" target="XOiMRAzDSWEchkISfKKq-3" edge="1">
          <mxGeometry relative="1" as="geometry" />
        </mxCell>
        <mxCell id="XOiMRAzDSWEchkISfKKq-15" style="edgeStyle=orthogonalEdgeStyle;rounded=0;orthogonalLoop=1;jettySize=auto;html=1;exitX=1;exitY=0.5;exitDx=0;exitDy=0;entryX=0;entryY=0.5;entryDx=0;entryDy=0;" parent="1" source="XOiMRAzDSWEchkISfKKq-2" target="XOiMRAzDSWEchkISfKKq-4" edge="1">
          <mxGeometry relative="1" as="geometry" />
        </mxCell>
        <mxCell id="XOiMRAzDSWEchkISfKKq-16" style="edgeStyle=orthogonalEdgeStyle;rounded=0;orthogonalLoop=1;jettySize=auto;html=1;exitX=1;exitY=0.5;exitDx=0;exitDy=0;entryX=0;entryY=0.5;entryDx=0;entryDy=0;" parent="1" source="XOiMRAzDSWEchkISfKKq-2" target="XOiMRAzDSWEchkISfKKq-5" edge="1">
          <mxGeometry relative="1" as="geometry" />
        </mxCell>
        <mxCell id="XOiMRAzDSWEchkISfKKq-2" value="&lt;div style=&quot;&quot;&gt;&lt;span style=&quot;background-color: initial;&quot;&gt;template&amp;lt;typename T&amp;gt;&lt;/span&gt;&lt;br&gt;&lt;/div&gt;&lt;div style=&quot;&quot;&gt;&lt;span style=&quot;background-color: initial;&quot;&gt;void f(ParamType param)&lt;/span&gt;&lt;/div&gt;&lt;div style=&quot;&quot;&gt;&lt;br&gt;&lt;/div&gt;&lt;div style=&quot;&quot;&gt;&lt;br&gt;&lt;/div&gt;&lt;div style=&quot;&quot;&gt;&lt;span style=&quot;background-color: initial;&quot;&gt;f(expr)&lt;/span&gt;&lt;/div&gt;" style="whiteSpace=wrap;html=1;aspect=fixed;align=left;" parent="1" vertex="1">
          <mxGeometry x="220" y="380" width="140" height="140" as="geometry" />
        </mxCell>
        <mxCell id="XOiMRAzDSWEchkISfKKq-3" value="&lt;span style=&quot;text-align: justify;&quot;&gt;ParamType&lt;/span&gt;是通用引用" style="rounded=0;whiteSpace=wrap;html=1;" parent="1" vertex="1">
          <mxGeometry x="450" y="310" width="120" height="60" as="geometry" />
        </mxCell>
        <mxCell id="XOiMRAzDSWEchkISfKKq-19" style="edgeStyle=orthogonalEdgeStyle;rounded=0;orthogonalLoop=1;jettySize=auto;html=1;exitX=1;exitY=0.5;exitDx=0;exitDy=0;entryX=0.008;entryY=0.4;entryDx=0;entryDy=0;entryPerimeter=0;" parent="1" source="XOiMRAzDSWEchkISfKKq-4" target="XOiMRAzDSWEchkISfKKq-7" edge="1">
          <mxGeometry relative="1" as="geometry" />
        </mxCell>
        <mxCell id="XOiMRAzDSWEchkISfKKq-4" value="&lt;span style=&quot;text-align: justify;&quot;&gt;ParamType是除通用引用外的引用或指针&lt;/span&gt;" style="rounded=0;whiteSpace=wrap;html=1;" parent="1" vertex="1">
          <mxGeometry x="450" y="420" width="120" height="60" as="geometry" />
        </mxCell>
        <mxCell id="XOiMRAzDSWEchkISfKKq-18" style="edgeStyle=orthogonalEdgeStyle;rounded=0;orthogonalLoop=1;jettySize=auto;html=1;exitX=1;exitY=0.5;exitDx=0;exitDy=0;entryX=0;entryY=0.5;entryDx=0;entryDy=0;" parent="1" source="XOiMRAzDSWEchkISfKKq-5" target="XOiMRAzDSWEchkISfKKq-8" edge="1">
          <mxGeometry relative="1" as="geometry" />
        </mxCell>
        <mxCell id="XOiMRAzDSWEchkISfKKq-5" value="&lt;span style=&quot;text-align: justify;&quot;&gt;ParamType非引用指针&lt;/span&gt;" style="rounded=0;whiteSpace=wrap;html=1;" parent="1" vertex="1">
          <mxGeometry x="450" y="540" width="120" height="60" as="geometry" />
        </mxCell>
        <mxCell id="XOiMRAzDSWEchkISfKKq-6" value="1. 忽视reference ness,expr是否是引用类型和类型推导无关" style="rounded=0;whiteSpace=wrap;html=1;" parent="1" vertex="1">
          <mxGeometry x="660" y="300" width="120" height="60" as="geometry" />
        </mxCell>
        <mxCell id="XOiMRAzDSWEchkISfKKq-7" value="2. 通用引用会将expr的左右值性作为左右值引用带入推导" style="rounded=0;whiteSpace=wrap;html=1;" parent="1" vertex="1">
          <mxGeometry x="660" y="420" width="120" height="60" as="geometry" />
        </mxCell>
        <mxCell id="XOiMRAzDSWEchkISfKKq-8" value="3. 非引用指针则丢弃常量性" style="rounded=0;whiteSpace=wrap;html=1;" parent="1" vertex="1">
          <mxGeometry x="670" y="540" width="120" height="60" as="geometry" />
        </mxCell>
        <mxCell id="XOiMRAzDSWEchkISfKKq-9" value="&lt;div style=&quot;&quot;&gt;const auto&amp;amp; x = expr&lt;br&gt;auto:T&lt;br&gt;const auto&amp;amp;: ParamType&lt;br&gt;expr:expr&lt;/div&gt;" style="whiteSpace=wrap;html=1;aspect=fixed;align=left;" parent="1" vertex="1">
          <mxGeometry x="220" y="620" width="140" height="140" as="geometry" />
        </mxCell>
        <mxCell id="XOiMRAzDSWEchkISfKKq-10" value="&lt;span style=&quot;text-align: justify;&quot;&gt;auto和函数模板的唯一区别是auto会将{}推导为initialize_list&lt;/span&gt;" style="rounded=0;whiteSpace=wrap;html=1;" parent="1" vertex="1">
          <mxGeometry x="450" y="680" width="120" height="60" as="geometry" />
        </mxCell>
        <mxCell id="XOiMRAzDSWEchkISfKKq-13" style="edgeStyle=orthogonalEdgeStyle;rounded=0;orthogonalLoop=1;jettySize=auto;html=1;exitX=0.5;exitY=1;exitDx=0;exitDy=0;" parent="1" source="Bpbho1CVXNQYabQPxv-8-1" target="Bpbho1CVXNQYabQPxv-8-1" edge="1">
          <mxGeometry relative="1" as="geometry" />
        </mxCell>
        <mxCell id="XOiMRAzDSWEchkISfKKq-17" value="是否是引用类型对传参没影响" style="ellipse;shape=cloud;whiteSpace=wrap;html=1;" parent="1" vertex="1">
          <mxGeometry x="800" y="290" width="120" height="80" as="geometry" />
        </mxCell>
        <mxCell id="m3bp-IvcXnZNKY8HZiOJ-6" style="edgeStyle=orthogonalEdgeStyle;rounded=0;orthogonalLoop=1;jettySize=auto;html=1;exitX=0.5;exitY=0;exitDx=0;exitDy=0;entryX=0.5;entryY=1;entryDx=0;entryDy=0;" parent="1" source="WuHR0r5tEEKMtNBvD81C-2" target="m3bp-IvcXnZNKY8HZiOJ-5" edge="1">
          <mxGeometry relative="1" as="geometry" />
        </mxCell>
        <mxCell id="WuHR0r5tEEKMtNBvD81C-2" value="宇宙引用（通用引用、传递引用）" style="rounded=0;whiteSpace=wrap;html=1;dashed=1;" parent="1" vertex="1">
          <mxGeometry x="-293" y="420" width="120" height="60" as="geometry" />
        </mxCell>
        <mxCell id="WuHR0r5tEEKMtNBvD81C-10" style="edgeStyle=orthogonalEdgeStyle;rounded=0;orthogonalLoop=1;jettySize=auto;html=1;exitX=1;exitY=0.5;exitDx=0;exitDy=0;entryX=0;entryY=0.5;entryDx=0;entryDy=0;" parent="1" source="WuHR0r5tEEKMtNBvD81C-8" target="WuHR0r5tEEKMtNBvD81C-2" edge="1">
          <mxGeometry relative="1" as="geometry" />
        </mxCell>
        <mxCell id="m3bp-IvcXnZNKY8HZiOJ-48" style="edgeStyle=orthogonalEdgeStyle;rounded=0;orthogonalLoop=1;jettySize=auto;html=1;exitX=0.5;exitY=1;exitDx=0;exitDy=0;entryX=0;entryY=0.5;entryDx=0;entryDy=0;" parent="1" source="WuHR0r5tEEKMtNBvD81C-8" target="m3bp-IvcXnZNKY8HZiOJ-36" edge="1">
          <mxGeometry relative="1" as="geometry" />
        </mxCell>
        <mxCell id="m3bp-IvcXnZNKY8HZiOJ-49" style="edgeStyle=orthogonalEdgeStyle;rounded=0;orthogonalLoop=1;jettySize=auto;html=1;exitX=0.5;exitY=1;exitDx=0;exitDy=0;entryX=0;entryY=0.5;entryDx=0;entryDy=0;" parent="1" source="WuHR0r5tEEKMtNBvD81C-8" target="m3bp-IvcXnZNKY8HZiOJ-37" edge="1">
          <mxGeometry relative="1" as="geometry" />
        </mxCell>
        <mxCell id="WuHR0r5tEEKMtNBvD81C-8" value="右值引用" style="rounded=0;whiteSpace=wrap;html=1;" parent="1" vertex="1">
          <mxGeometry x="-600" y="420" width="120" height="60" as="geometry" />
        </mxCell>
        <mxCell id="yQ8UnmBoRICfsAfrpyem-21" style="edgeStyle=orthogonalEdgeStyle;rounded=0;orthogonalLoop=1;jettySize=auto;html=1;exitX=0.5;exitY=0;exitDx=0;exitDy=0;entryX=0;entryY=0.5;entryDx=0;entryDy=0;" parent="1" source="WuHR0r5tEEKMtNBvD81C-9" target="yQ8UnmBoRICfsAfrpyem-20" edge="1">
          <mxGeometry relative="1" as="geometry" />
        </mxCell>
        <mxCell id="WuHR0r5tEEKMtNBvD81C-9" value="左值引用" style="rounded=0;whiteSpace=wrap;html=1;" parent="1" vertex="1">
          <mxGeometry x="-600" y="320" width="120" height="60" as="geometry" />
        </mxCell>
        <mxCell id="WuHR0r5tEEKMtNBvD81C-12" style="edgeStyle=orthogonalEdgeStyle;rounded=0;orthogonalLoop=1;jettySize=auto;html=1;exitX=1;exitY=0.5;exitDx=0;exitDy=0;entryX=0;entryY=0.5;entryDx=0;entryDy=0;" parent="1" source="WuHR0r5tEEKMtNBvD81C-11" target="WuHR0r5tEEKMtNBvD81C-9" edge="1">
          <mxGeometry relative="1" as="geometry" />
        </mxCell>
        <mxCell id="WuHR0r5tEEKMtNBvD81C-13" style="edgeStyle=orthogonalEdgeStyle;rounded=0;orthogonalLoop=1;jettySize=auto;html=1;exitX=1;exitY=0.5;exitDx=0;exitDy=0;entryX=0;entryY=0.5;entryDx=0;entryDy=0;" parent="1" source="WuHR0r5tEEKMtNBvD81C-11" target="WuHR0r5tEEKMtNBvD81C-8" edge="1">
          <mxGeometry relative="1" as="geometry" />
        </mxCell>
        <mxCell id="WuHR0r5tEEKMtNBvD81C-11" value="引用" style="rounded=0;whiteSpace=wrap;html=1;" parent="1" vertex="1">
          <mxGeometry x="-770" y="370" width="120" height="60" as="geometry" />
        </mxCell>
        <mxCell id="WuHR0r5tEEKMtNBvD81C-14" value="格式是T&amp;amp;&amp;amp; 或者 T&amp;amp;&amp;amp;..." style="text;html=1;align=center;verticalAlign=middle;resizable=0;points=[];autosize=1;strokeColor=none;fillColor=none;" parent="1" vertex="1">
          <mxGeometry x="-150" y="430" width="140" height="20" as="geometry" />
        </mxCell>
        <mxCell id="WuHR0r5tEEKMtNBvD81C-15" value="格式是auto&amp;amp;&amp;amp;" style="text;html=1;align=center;verticalAlign=middle;resizable=0;points=[];autosize=1;strokeColor=none;fillColor=none;" parent="1" vertex="1">
          <mxGeometry x="-180" y="670" width="90" height="20" as="geometry" />
        </mxCell>
        <mxCell id="WuHR0r5tEEKMtNBvD81C-17" style="edgeStyle=orthogonalEdgeStyle;rounded=0;orthogonalLoop=1;jettySize=auto;html=1;exitX=1;exitY=0.5;exitDx=0;exitDy=0;entryX=0;entryY=0.5;entryDx=0;entryDy=0;" parent="1" source="WuHR0r5tEEKMtNBvD81C-16" target="Bpbho1CVXNQYabQPxv-8-3" edge="1">
          <mxGeometry relative="1" as="geometry">
            <Array as="points">
              <mxPoint x="-80" y="850" />
            </Array>
          </mxGeometry>
        </mxCell>
        <mxCell id="WuHR0r5tEEKMtNBvD81C-18" style="edgeStyle=orthogonalEdgeStyle;rounded=0;orthogonalLoop=1;jettySize=auto;html=1;exitX=1;exitY=0.5;exitDx=0;exitDy=0;entryX=0.5;entryY=1;entryDx=0;entryDy=0;" parent="1" source="WuHR0r5tEEKMtNBvD81C-16" target="Bpbho1CVXNQYabQPxv-8-2" edge="1">
          <mxGeometry relative="1" as="geometry" />
        </mxCell>
        <mxCell id="WuHR0r5tEEKMtNBvD81C-19" style="edgeStyle=orthogonalEdgeStyle;rounded=0;orthogonalLoop=1;jettySize=auto;html=1;exitX=1;exitY=0.5;exitDx=0;exitDy=0;entryX=0.5;entryY=1;entryDx=0;entryDy=0;" parent="1" source="WuHR0r5tEEKMtNBvD81C-16" target="Bpbho1CVXNQYabQPxv-8-1" edge="1">
          <mxGeometry relative="1" as="geometry">
            <Array as="points">
              <mxPoint x="-80" y="560" />
              <mxPoint x="70" y="560" />
            </Array>
          </mxGeometry>
        </mxCell>
        <mxCell id="WuHR0r5tEEKMtNBvD81C-16" value="&lt;span style=&quot;&quot;&gt;c++14类型推导&lt;/span&gt;" style="rounded=0;whiteSpace=wrap;html=1;" parent="1" vertex="1">
          <mxGeometry x="-200" y="765" width="120" height="60" as="geometry" />
        </mxCell>
        <mxCell id="WuHR0r5tEEKMtNBvD81C-22" style="edgeStyle=orthogonalEdgeStyle;rounded=0;orthogonalLoop=1;jettySize=auto;html=1;exitX=1;exitY=0.5;exitDx=0;exitDy=0;entryX=0;entryY=0.5;entryDx=0;entryDy=0;" parent="1" source="WuHR0r5tEEKMtNBvD81C-20" target="WuHR0r5tEEKMtNBvD81C-21" edge="1">
          <mxGeometry relative="1" as="geometry" />
        </mxCell>
        <mxCell id="WuHR0r5tEEKMtNBvD81C-25" style="edgeStyle=orthogonalEdgeStyle;rounded=0;orthogonalLoop=1;jettySize=auto;html=1;exitX=1;exitY=0.5;exitDx=0;exitDy=0;entryX=0;entryY=0.5;entryDx=0;entryDy=0;" parent="1" source="WuHR0r5tEEKMtNBvD81C-20" target="WuHR0r5tEEKMtNBvD81C-24" edge="1">
          <mxGeometry relative="1" as="geometry" />
        </mxCell>
        <mxCell id="WuHR0r5tEEKMtNBvD81C-27" style="edgeStyle=orthogonalEdgeStyle;rounded=0;orthogonalLoop=1;jettySize=auto;html=1;exitX=1;exitY=0.5;exitDx=0;exitDy=0;entryX=0;entryY=0.5;entryDx=0;entryDy=0;" parent="1" source="WuHR0r5tEEKMtNBvD81C-20" target="WuHR0r5tEEKMtNBvD81C-26" edge="1">
          <mxGeometry relative="1" as="geometry" />
        </mxCell>
        <mxCell id="WuHR0r5tEEKMtNBvD81C-20" value="传参方式" style="rounded=0;whiteSpace=wrap;html=1;" parent="1" vertex="1">
          <mxGeometry x="-537.5" y="-530" width="120" height="60" as="geometry" />
        </mxCell>
        <mxCell id="WuHR0r5tEEKMtNBvD81C-21" value="传值" style="rounded=0;whiteSpace=wrap;html=1;" parent="1" vertex="1">
          <mxGeometry x="-237.5" y="-590" width="120" height="60" as="geometry" />
        </mxCell>
        <mxCell id="WuHR0r5tEEKMtNBvD81C-23" value="可拷贝" style="text;html=1;align=center;verticalAlign=middle;resizable=0;points=[];autosize=1;strokeColor=none;fillColor=none;" parent="1" vertex="1">
          <mxGeometry x="-317.5" y="-590" width="50" height="20" as="geometry" />
        </mxCell>
        <mxCell id="WuHR0r5tEEKMtNBvD81C-24" value="const左值引用+右值引用&lt;br&gt;（const Type&amp;amp; param&lt;br&gt;Type&amp;amp;&amp;amp; param）" style="rounded=0;whiteSpace=wrap;html=1;" parent="1" vertex="1">
          <mxGeometry x="-237.5" y="-500" width="120" height="60" as="geometry" />
        </mxCell>
        <mxCell id="WuHR0r5tEEKMtNBvD81C-31" style="edgeStyle=orthogonalEdgeStyle;rounded=0;orthogonalLoop=1;jettySize=auto;html=1;exitX=1;exitY=0.5;exitDx=0;exitDy=0;entryX=0;entryY=0.5;entryDx=0;entryDy=0;" parent="1" source="WuHR0r5tEEKMtNBvD81C-26" target="WuHR0r5tEEKMtNBvD81C-30" edge="1">
          <mxGeometry relative="1" as="geometry" />
        </mxCell>
        <mxCell id="WuHR0r5tEEKMtNBvD81C-33" style="edgeStyle=orthogonalEdgeStyle;rounded=0;orthogonalLoop=1;jettySize=auto;html=1;exitX=1;exitY=0.5;exitDx=0;exitDy=0;entryX=0;entryY=0.5;entryDx=0;entryDy=0;" parent="1" source="WuHR0r5tEEKMtNBvD81C-26" target="WuHR0r5tEEKMtNBvD81C-32" edge="1">
          <mxGeometry relative="1" as="geometry" />
        </mxCell>
        <mxCell id="m3bp-IvcXnZNKY8HZiOJ-11" style="edgeStyle=orthogonalEdgeStyle;rounded=0;orthogonalLoop=1;jettySize=auto;html=1;exitX=0.5;exitY=1;exitDx=0;exitDy=0;" parent="1" source="WuHR0r5tEEKMtNBvD81C-26" target="m3bp-IvcXnZNKY8HZiOJ-10" edge="1">
          <mxGeometry relative="1" as="geometry" />
        </mxCell>
        <mxCell id="WuHR0r5tEEKMtNBvD81C-26" value="宇宙引用" style="rounded=0;whiteSpace=wrap;html=1;" parent="1" vertex="1">
          <mxGeometry x="-237.5" y="-400" width="120" height="60" as="geometry" />
        </mxCell>
        <mxCell id="WuHR0r5tEEKMtNBvD81C-28" value="可移动" style="text;whiteSpace=wrap;html=1;" parent="1" vertex="1">
          <mxGeometry x="-307.5" y="-500" width="60" height="30" as="geometry" />
        </mxCell>
        <mxCell id="WuHR0r5tEEKMtNBvD81C-29" value="随着参数增加，重载的函数数量无法收敛&lt;br&gt;不能处理变长参数的情况" style="text;html=1;align=center;verticalAlign=middle;resizable=0;points=[];autosize=1;strokeColor=none;fillColor=none;" parent="1" vertex="1">
          <mxGeometry x="-107.5" y="-485" width="230" height="30" as="geometry" />
        </mxCell>
        <mxCell id="WuHR0r5tEEKMtNBvD81C-30" value="为什么不要重载参数为宇宙引用的函数" style="rounded=0;whiteSpace=wrap;html=1;fillColor=#ffe6cc;strokeColor=#d79b00;" parent="1" vertex="1">
          <mxGeometry x="-27.5" y="-420" width="120" height="60" as="geometry" />
        </mxCell>
        <mxCell id="WuHR0r5tEEKMtNBvD81C-32" value="怎样避免重载参数为宇宙引用的函数" style="rounded=0;whiteSpace=wrap;html=1;fillColor=#ffe6cc;strokeColor=#d79b00;" parent="1" vertex="1">
          <mxGeometry x="-27.5" y="-320" width="120" height="60" as="geometry" />
        </mxCell>
        <mxCell id="WuHR0r5tEEKMtNBvD81C-34" value="item27" style="text;html=1;align=center;verticalAlign=middle;resizable=0;points=[];autosize=1;strokeColor=none;fillColor=none;" parent="1" vertex="1">
          <mxGeometry x="92.5" y="-300" width="50" height="20" as="geometry" />
        </mxCell>
        <mxCell id="WuHR0r5tEEKMtNBvD81C-35" value="item26" style="text;html=1;align=center;verticalAlign=middle;resizable=0;points=[];autosize=1;strokeColor=none;fillColor=none;" parent="1" vertex="1">
          <mxGeometry x="92.5" y="-400" width="50" height="20" as="geometry" />
        </mxCell>
        <mxCell id="m3bp-IvcXnZNKY8HZiOJ-22" style="edgeStyle=orthogonalEdgeStyle;rounded=0;orthogonalLoop=1;jettySize=auto;html=1;exitX=0.5;exitY=0;exitDx=0;exitDy=0;entryX=0.5;entryY=1;entryDx=0;entryDy=0;" parent="1" source="WuHR0r5tEEKMtNBvD81C-37" target="m3bp-IvcXnZNKY8HZiOJ-13" edge="1">
          <mxGeometry relative="1" as="geometry" />
        </mxCell>
        <mxCell id="m3bp-IvcXnZNKY8HZiOJ-27" style="edgeStyle=orthogonalEdgeStyle;rounded=0;orthogonalLoop=1;jettySize=auto;html=1;exitX=1;exitY=0.5;exitDx=0;exitDy=0;entryX=0;entryY=0.5;entryDx=0;entryDy=0;" parent="1" source="WuHR0r5tEEKMtNBvD81C-37" target="m3bp-IvcXnZNKY8HZiOJ-23" edge="1">
          <mxGeometry relative="1" as="geometry" />
        </mxCell>
        <mxCell id="m3bp-IvcXnZNKY8HZiOJ-28" style="edgeStyle=orthogonalEdgeStyle;rounded=0;orthogonalLoop=1;jettySize=auto;html=1;exitX=1;exitY=0.5;exitDx=0;exitDy=0;entryX=0;entryY=0.5;entryDx=0;entryDy=0;" parent="1" source="WuHR0r5tEEKMtNBvD81C-37" target="m3bp-IvcXnZNKY8HZiOJ-24" edge="1">
          <mxGeometry relative="1" as="geometry" />
        </mxCell>
        <mxCell id="m3bp-IvcXnZNKY8HZiOJ-29" style="edgeStyle=orthogonalEdgeStyle;rounded=0;orthogonalLoop=1;jettySize=auto;html=1;exitX=1;exitY=0.5;exitDx=0;exitDy=0;" parent="1" source="WuHR0r5tEEKMtNBvD81C-37" target="m3bp-IvcXnZNKY8HZiOJ-25" edge="1">
          <mxGeometry relative="1" as="geometry" />
        </mxCell>
        <mxCell id="m3bp-IvcXnZNKY8HZiOJ-30" style="edgeStyle=orthogonalEdgeStyle;rounded=0;orthogonalLoop=1;jettySize=auto;html=1;exitX=1;exitY=0.5;exitDx=0;exitDy=0;entryX=0;entryY=0.5;entryDx=0;entryDy=0;" parent="1" source="WuHR0r5tEEKMtNBvD81C-37" target="m3bp-IvcXnZNKY8HZiOJ-26" edge="1">
          <mxGeometry relative="1" as="geometry" />
        </mxCell>
        <mxCell id="WuHR0r5tEEKMtNBvD81C-37" value="&lt;span style=&quot;&quot;&gt;引用合并（refrence collapsing）&lt;/span&gt;" style="rounded=0;whiteSpace=wrap;html=1;" parent="1" vertex="1">
          <mxGeometry x="-1030" y="-130" width="120" height="60" as="geometry" />
        </mxCell>
        <mxCell id="m3bp-IvcXnZNKY8HZiOJ-5" value="&lt;span style=&quot;&quot;&gt;类型推导将类型T的左值推推导成T&amp;amp;，右值推导成T&lt;/span&gt;&lt;br style=&quot;&quot;&gt;" style="rounded=0;whiteSpace=wrap;html=1;" parent="1" vertex="1">
          <mxGeometry x="-293" y="280" width="120" height="60" as="geometry" />
        </mxCell>
        <mxCell id="m3bp-IvcXnZNKY8HZiOJ-7" value="概述" style="text;html=1;align=center;verticalAlign=middle;resizable=0;points=[];autosize=1;strokeColor=none;fillColor=none;" parent="1" vertex="1">
          <mxGeometry x="-270" y="370" width="40" height="20" as="geometry" />
        </mxCell>
        <mxCell id="m3bp-IvcXnZNKY8HZiOJ-8" value="特定条件下&lt;br&gt;条件1：类型推导区分左值右值&lt;br&gt;条件2：发生引用合并" style="text;html=1;align=center;verticalAlign=middle;resizable=0;points=[];autosize=1;strokeColor=none;fillColor=none;" parent="1" vertex="1">
          <mxGeometry x="-473" y="470" width="180" height="50" as="geometry" />
        </mxCell>
        <mxCell id="yQ8UnmBoRICfsAfrpyem-15" style="edgeStyle=orthogonalEdgeStyle;rounded=0;orthogonalLoop=1;jettySize=auto;html=1;exitX=1;exitY=0.5;exitDx=0;exitDy=0;entryX=0;entryY=0.5;entryDx=0;entryDy=0;" parent="1" source="m3bp-IvcXnZNKY8HZiOJ-10" target="yQ8UnmBoRICfsAfrpyem-14" edge="1">
          <mxGeometry relative="1" as="geometry" />
        </mxCell>
        <mxCell id="m3bp-IvcXnZNKY8HZiOJ-10" value="std::forward" style="rounded=0;whiteSpace=wrap;html=1;" parent="1" vertex="1">
          <mxGeometry x="-337.5" y="-260" width="120" height="60" as="geometry" />
        </mxCell>
        <mxCell id="m3bp-IvcXnZNKY8HZiOJ-12" value="使用案例" style="text;html=1;align=center;verticalAlign=middle;resizable=0;points=[];autosize=1;strokeColor=none;fillColor=none;" parent="1" vertex="1">
          <mxGeometry x="-337.5" y="-300" width="60" height="20" as="geometry" />
        </mxCell>
        <mxCell id="m3bp-IvcXnZNKY8HZiOJ-13" value="有左值引用则合并为左值引用，否则合并为右值引用" style="rounded=0;whiteSpace=wrap;html=1;" parent="1" vertex="1">
          <mxGeometry x="-1030" y="-260" width="120" height="60" as="geometry" />
        </mxCell>
        <mxCell id="m3bp-IvcXnZNKY8HZiOJ-15" value="合并规则" style="text;html=1;align=center;verticalAlign=middle;resizable=0;points=[];autosize=1;strokeColor=none;fillColor=none;" parent="1" vertex="1">
          <mxGeometry x="-1040" y="-180" width="60" height="20" as="geometry" />
        </mxCell>
        <mxCell id="yQ8UnmBoRICfsAfrpyem-12" style="edgeStyle=orthogonalEdgeStyle;rounded=0;orthogonalLoop=1;jettySize=auto;html=1;exitX=1;exitY=0.5;exitDx=0;exitDy=0;" parent="1" source="m3bp-IvcXnZNKY8HZiOJ-16" target="yQ8UnmBoRICfsAfrpyem-9" edge="1">
          <mxGeometry relative="1" as="geometry" />
        </mxCell>
        <mxCell id="yQ8UnmBoRICfsAfrpyem-16" style="edgeStyle=orthogonalEdgeStyle;rounded=0;orthogonalLoop=1;jettySize=auto;html=1;exitX=0;exitY=0.5;exitDx=0;exitDy=0;" parent="1" source="m3bp-IvcXnZNKY8HZiOJ-16" target="yQ8UnmBoRICfsAfrpyem-13" edge="1">
          <mxGeometry relative="1" as="geometry">
            <mxPoint x="-380" y="-150" as="targetPoint" />
          </mxGeometry>
        </mxCell>
        <mxCell id="m3bp-IvcXnZNKY8HZiOJ-16" value="std::move" style="rounded=0;whiteSpace=wrap;html=1;" parent="1" vertex="1">
          <mxGeometry x="-337.5" y="-180" width="120" height="60" as="geometry" />
        </mxCell>
        <mxCell id="m3bp-IvcXnZNKY8HZiOJ-21" value="左值引用是左值&lt;br&gt;函数中返回的右值引用是右值" style="rounded=0;whiteSpace=wrap;html=1;" parent="1" vertex="1">
          <mxGeometry x="-1230" y="880" width="120" height="60" as="geometry" />
        </mxCell>
        <mxCell id="m3bp-IvcXnZNKY8HZiOJ-23" value="函数模板初始化&lt;span style=&quot;&quot;&gt;T&amp;amp;&amp;amp; 或者 T&amp;amp;&amp;amp;...格式下将左值的T推导为左值引用&lt;/span&gt;" style="rounded=0;whiteSpace=wrap;html=1;" parent="1" vertex="1">
          <mxGeometry x="-760" y="-295" width="120" height="60" as="geometry" />
        </mxCell>
        <mxCell id="m3bp-IvcXnZNKY8HZiOJ-24" value="auto&amp;amp;&amp;amp; 将左值推导成左值引用" style="rounded=0;whiteSpace=wrap;html=1;" parent="1" vertex="1">
          <mxGeometry x="-760" y="-195" width="120" height="60" as="geometry" />
        </mxCell>
        <mxCell id="m3bp-IvcXnZNKY8HZiOJ-25" value="typedef T&amp;amp;&amp;amp; RvalueRefToT&lt;br&gt;当T带引用时" style="rounded=0;whiteSpace=wrap;html=1;" parent="1" vertex="1">
          <mxGeometry x="-760" y="-95" width="120" height="60" as="geometry" />
        </mxCell>
        <mxCell id="m3bp-IvcXnZNKY8HZiOJ-26" value="decltype(T)&amp;amp;&amp;amp;" style="rounded=0;whiteSpace=wrap;html=1;" parent="1" vertex="1">
          <mxGeometry x="-760" y="15" width="120" height="60" as="geometry" />
        </mxCell>
        <mxCell id="m3bp-IvcXnZNKY8HZiOJ-31" value="发生场景" style="text;html=1;align=center;verticalAlign=middle;resizable=0;points=[];autosize=1;strokeColor=none;fillColor=none;" parent="1" vertex="1">
          <mxGeometry x="-910" y="-120" width="60" height="20" as="geometry" />
        </mxCell>
        <mxCell id="D_7xWSGTbG8qMXm1kdTH-134" style="edgeStyle=orthogonalEdgeStyle;rounded=0;orthogonalLoop=1;jettySize=auto;html=1;exitX=1;exitY=0.5;exitDx=0;exitDy=0;entryX=0;entryY=0.5;entryDx=0;entryDy=0;" edge="1" parent="1" source="m3bp-IvcXnZNKY8HZiOJ-33" target="m3bp-IvcXnZNKY8HZiOJ-34">
          <mxGeometry relative="1" as="geometry" />
        </mxCell>
        <mxCell id="D_7xWSGTbG8qMXm1kdTH-135" style="edgeStyle=orthogonalEdgeStyle;rounded=0;orthogonalLoop=1;jettySize=auto;html=1;exitX=1;exitY=0.5;exitDx=0;exitDy=0;entryX=0;entryY=0.5;entryDx=0;entryDy=0;" edge="1" parent="1" source="m3bp-IvcXnZNKY8HZiOJ-33" target="m3bp-IvcXnZNKY8HZiOJ-35">
          <mxGeometry relative="1" as="geometry" />
        </mxCell>
        <mxCell id="m3bp-IvcXnZNKY8HZiOJ-33" value="值" style="rounded=0;whiteSpace=wrap;html=1;" parent="1" vertex="1">
          <mxGeometry x="-1280" y="660" width="120" height="60" as="geometry" />
        </mxCell>
        <mxCell id="yQ8UnmBoRICfsAfrpyem-2" style="edgeStyle=orthogonalEdgeStyle;rounded=0;orthogonalLoop=1;jettySize=auto;html=1;exitX=1;exitY=0.5;exitDx=0;exitDy=0;entryX=0;entryY=0.5;entryDx=0;entryDy=0;" parent="1" source="m3bp-IvcXnZNKY8HZiOJ-34" target="yQ8UnmBoRICfsAfrpyem-1" edge="1">
          <mxGeometry relative="1" as="geometry" />
        </mxCell>
        <mxCell id="m3bp-IvcXnZNKY8HZiOJ-34" value="左值" style="rounded=0;whiteSpace=wrap;html=1;" parent="1" vertex="1">
          <mxGeometry x="-1103" y="595" width="120" height="60" as="geometry" />
        </mxCell>
        <mxCell id="m3bp-IvcXnZNKY8HZiOJ-35" value="右值" style="rounded=0;whiteSpace=wrap;html=1;" parent="1" vertex="1">
          <mxGeometry x="-1103" y="725" width="120" height="60" as="geometry" />
        </mxCell>
        <mxCell id="m3bp-IvcXnZNKY8HZiOJ-39" style="edgeStyle=orthogonalEdgeStyle;rounded=0;orthogonalLoop=1;jettySize=auto;html=1;exitX=1;exitY=0.5;exitDx=0;exitDy=0;entryX=0;entryY=0.5;entryDx=0;entryDy=0;" parent="1" source="m3bp-IvcXnZNKY8HZiOJ-36" target="m3bp-IvcXnZNKY8HZiOJ-38" edge="1">
          <mxGeometry relative="1" as="geometry" />
        </mxCell>
        <mxCell id="m3bp-IvcXnZNKY8HZiOJ-36" value="移动语义" style="rounded=0;whiteSpace=wrap;html=1;" parent="1" vertex="1">
          <mxGeometry x="-510" y="1150" width="120" height="60" as="geometry" />
        </mxCell>
        <mxCell id="m3bp-IvcXnZNKY8HZiOJ-46" style="edgeStyle=orthogonalEdgeStyle;rounded=0;orthogonalLoop=1;jettySize=auto;html=1;exitX=1;exitY=0.5;exitDx=0;exitDy=0;entryX=0;entryY=0.5;entryDx=0;entryDy=0;" parent="1" source="m3bp-IvcXnZNKY8HZiOJ-37" target="m3bp-IvcXnZNKY8HZiOJ-45" edge="1">
          <mxGeometry relative="1" as="geometry" />
        </mxCell>
        <mxCell id="m3bp-IvcXnZNKY8HZiOJ-37" value="完美转发" style="rounded=0;whiteSpace=wrap;html=1;" parent="1" vertex="1">
          <mxGeometry x="-510" y="1250" width="120" height="60" as="geometry" />
        </mxCell>
        <mxCell id="m3bp-IvcXnZNKY8HZiOJ-41" style="edgeStyle=orthogonalEdgeStyle;rounded=0;orthogonalLoop=1;jettySize=auto;html=1;exitX=1;exitY=0.5;exitDx=0;exitDy=0;entryX=0;entryY=0.5;entryDx=0;entryDy=0;" parent="1" source="m3bp-IvcXnZNKY8HZiOJ-38" target="m3bp-IvcXnZNKY8HZiOJ-40" edge="1">
          <mxGeometry relative="1" as="geometry" />
        </mxCell>
        <mxCell id="m3bp-IvcXnZNKY8HZiOJ-38" value="移动构造函数和移动运算符（对应拷贝构造函数和拷贝运算符）" style="rounded=0;whiteSpace=wrap;html=1;" parent="1" vertex="1">
          <mxGeometry x="-250" y="1040" width="120" height="60" as="geometry" />
        </mxCell>
        <mxCell id="m3bp-IvcXnZNKY8HZiOJ-40" value="std::unique_ptr&lt;br&gt;std::future&lt;br&gt;std::thread" style="rounded=0;whiteSpace=wrap;html=1;" parent="1" vertex="1">
          <mxGeometry x="47" y="1040" width="120" height="60" as="geometry" />
        </mxCell>
        <mxCell id="m3bp-IvcXnZNKY8HZiOJ-42" value="引入" style="text;html=1;align=center;verticalAlign=middle;resizable=0;points=[];autosize=1;strokeColor=none;fillColor=none;" parent="1" vertex="1">
          <mxGeometry x="-370" y="1160" width="40" height="20" as="geometry" />
        </mxCell>
        <mxCell id="m3bp-IvcXnZNKY8HZiOJ-43" value="产生move only类型" style="text;html=1;align=center;verticalAlign=middle;resizable=0;points=[];autosize=1;strokeColor=none;fillColor=none;" parent="1" vertex="1">
          <mxGeometry x="-110" y="1050" width="120" height="20" as="geometry" />
        </mxCell>
        <mxCell id="m3bp-IvcXnZNKY8HZiOJ-45" value="函数模板接受一些参数，并且将这些参数完美地传递给其他函数" style="rounded=0;whiteSpace=wrap;html=1;" parent="1" vertex="1">
          <mxGeometry x="-260" y="1250" width="120" height="60" as="geometry" />
        </mxCell>
        <mxCell id="m3bp-IvcXnZNKY8HZiOJ-47" value="允许" style="text;html=1;align=center;verticalAlign=middle;resizable=0;points=[];autosize=1;strokeColor=none;fillColor=none;" parent="1" vertex="1">
          <mxGeometry x="-340" y="1260" width="40" height="20" as="geometry" />
        </mxCell>
        <mxCell id="yQ8UnmBoRICfsAfrpyem-1" value="void f(Widget&amp;amp;&amp;amp; w)" style="rounded=0;whiteSpace=wrap;html=1;" parent="1" vertex="1">
          <mxGeometry x="-780" y="595" width="120" height="60" as="geometry" />
        </mxCell>
        <mxCell id="yQ8UnmBoRICfsAfrpyem-3" value="函数形参一定是左值" style="text;html=1;align=center;verticalAlign=middle;resizable=0;points=[];autosize=1;strokeColor=none;fillColor=none;" parent="1" vertex="1">
          <mxGeometry x="-950" y="600" width="120" height="20" as="geometry" />
        </mxCell>
        <mxCell id="yQ8UnmBoRICfsAfrpyem-5" value="&lt;span style=&quot;&quot;&gt;类型是右值引用的左值&lt;/span&gt;" style="ellipse;shape=cloud;whiteSpace=wrap;html=1;" parent="1" vertex="1">
          <mxGeometry x="-790" y="510" width="120" height="80" as="geometry" />
        </mxCell>
        <mxCell id="yQ8UnmBoRICfsAfrpyem-7" value="&lt;span style=&quot;&quot;&gt;std::forward和std::move都只是cast的函数模板&lt;/span&gt;" style="ellipse;shape=cloud;whiteSpace=wrap;html=1;" parent="1" vertex="1">
          <mxGeometry x="-337.5" y="-105" width="120" height="80" as="geometry" />
        </mxCell>
        <mxCell id="yQ8UnmBoRICfsAfrpyem-8" value="type trait" style="rounded=0;whiteSpace=wrap;html=1;" parent="1" vertex="1">
          <mxGeometry x="-560" y="-300" width="120" height="60" as="geometry" />
        </mxCell>
        <mxCell id="yQ8UnmBoRICfsAfrpyem-9" value="将类型强转为右值（右值引用类型的返回值是右值）" style="rounded=0;whiteSpace=wrap;html=1;" parent="1" vertex="1">
          <mxGeometry x="-147.5" y="-180" width="120" height="60" as="geometry" />
        </mxCell>
        <mxCell id="yQ8UnmBoRICfsAfrpyem-13" value="int f(const int&amp;amp; a)&lt;br&gt;    {&lt;br&gt;return a+1;&lt;br&gt;    }&lt;br&gt;&lt;br&gt;    int f(int&amp;amp;&amp;amp; a)&lt;br&gt;    {&lt;br&gt;        return a+2;&lt;br&gt;    }&lt;br&gt;&lt;br&gt;const int a = 1;&lt;br&gt;f(std::move(a)) 返回 2" style="text;whiteSpace=wrap;html=1;" parent="1" vertex="1">
          <mxGeometry x="-547.5" y="-200" width="140" height="180" as="geometry" />
        </mxCell>
        <mxCell id="yQ8UnmBoRICfsAfrpyem-14" value="函数模板将实参的左右值信息编码进类型T中，forwawrd可以把左右值性解码回来" style="rounded=0;whiteSpace=wrap;html=1;" parent="1" vertex="1">
          <mxGeometry x="-147.5" y="-260" width="120" height="60" as="geometry" />
        </mxCell>
        <mxCell id="yQ8UnmBoRICfsAfrpyem-17" value="案例" style="text;html=1;align=center;verticalAlign=middle;resizable=0;points=[];autosize=1;strokeColor=none;fillColor=none;" parent="1" vertex="1">
          <mxGeometry x="-393" y="-180" width="40" height="20" as="geometry" />
        </mxCell>
        <mxCell id="yQ8UnmBoRICfsAfrpyem-18" value="概述" style="text;html=1;align=center;verticalAlign=middle;resizable=0;points=[];autosize=1;strokeColor=none;fillColor=none;" parent="1" vertex="1">
          <mxGeometry x="-203" y="-175" width="40" height="20" as="geometry" />
        </mxCell>
        <mxCell id="yQ8UnmBoRICfsAfrpyem-19" value="概述" style="text;html=1;align=center;verticalAlign=middle;resizable=0;points=[];autosize=1;strokeColor=none;fillColor=none;" parent="1" vertex="1">
          <mxGeometry x="-203" y="-255" width="40" height="20" as="geometry" />
        </mxCell>
        <mxCell id="yQ8UnmBoRICfsAfrpyem-26" style="edgeStyle=orthogonalEdgeStyle;rounded=0;orthogonalLoop=1;jettySize=auto;html=1;exitX=1;exitY=0.5;exitDx=0;exitDy=0;entryX=0;entryY=0.5;entryDx=0;entryDy=0;" parent="1" source="yQ8UnmBoRICfsAfrpyem-20" target="yQ8UnmBoRICfsAfrpyem-23" edge="1">
          <mxGeometry relative="1" as="geometry" />
        </mxCell>
        <mxCell id="yQ8UnmBoRICfsAfrpyem-20" value="&lt;span style=&quot;&quot;&gt;常量左引用可以绑定到右值，非常量左引用不能绑定到右值&lt;/span&gt;" style="rounded=0;whiteSpace=wrap;html=1;" parent="1" vertex="1">
          <mxGeometry x="-460" y="110" width="120" height="60" as="geometry" />
        </mxCell>
        <mxCell id="yQ8UnmBoRICfsAfrpyem-22" value="绑定规则" style="text;html=1;align=center;verticalAlign=middle;resizable=0;points=[];autosize=1;strokeColor=none;fillColor=none;" parent="1" vertex="1">
          <mxGeometry x="-607.5" y="230" width="60" height="20" as="geometry" />
        </mxCell>
        <mxCell id="yQ8UnmBoRICfsAfrpyem-23" value="1.常量左引用绑定右值很方便，没有坑&lt;br&gt;2. 非常量左引用绑定右值可能会有坑" style="rounded=0;whiteSpace=wrap;html=1;" parent="1" vertex="1">
          <mxGeometry x="-200" y="110" width="120" height="60" as="geometry" />
        </mxCell>
        <mxCell id="yQ8UnmBoRICfsAfrpyem-25" value="绑定规则的设计动机" style="text;html=1;align=center;verticalAlign=middle;resizable=0;points=[];autosize=1;strokeColor=none;fillColor=none;" parent="1" vertex="1">
          <mxGeometry x="-330" y="120" width="120" height="20" as="geometry" />
        </mxCell>
        <mxCell id="yQ8UnmBoRICfsAfrpyem-27" value="&lt;span style=&quot;&quot;&gt;类型是右值引用的左值&lt;/span&gt;" style="ellipse;shape=cloud;whiteSpace=wrap;html=1;" parent="1" vertex="1">
          <mxGeometry x="-460" y="15" width="120" height="80" as="geometry" />
        </mxCell>
        <mxCell id="XzLQBKeTJrF8Z5Bt5rwe-2" value="裸指针" style="rounded=0;whiteSpace=wrap;html=1;" parent="1" vertex="1">
          <mxGeometry x="-522.75" y="1590" width="120" height="60" as="geometry" />
        </mxCell>
        <mxCell id="XzLQBKeTJrF8Z5Bt5rwe-31" style="edgeStyle=orthogonalEdgeStyle;rounded=0;orthogonalLoop=1;jettySize=auto;html=1;exitX=1;exitY=0.5;exitDx=0;exitDy=0;entryX=0;entryY=0.5;entryDx=0;entryDy=0;" parent="1" source="XzLQBKeTJrF8Z5Bt5rwe-3" target="XzLQBKeTJrF8Z5Bt5rwe-26" edge="1">
          <mxGeometry relative="1" as="geometry" />
        </mxCell>
        <mxCell id="XzLQBKeTJrF8Z5Bt5rwe-32" style="edgeStyle=orthogonalEdgeStyle;rounded=0;orthogonalLoop=1;jettySize=auto;html=1;exitX=1;exitY=0.5;exitDx=0;exitDy=0;entryX=0;entryY=0.5;entryDx=0;entryDy=0;" parent="1" source="XzLQBKeTJrF8Z5Bt5rwe-3" target="XzLQBKeTJrF8Z5Bt5rwe-27" edge="1">
          <mxGeometry relative="1" as="geometry" />
        </mxCell>
        <mxCell id="XzLQBKeTJrF8Z5Bt5rwe-33" style="edgeStyle=orthogonalEdgeStyle;rounded=0;orthogonalLoop=1;jettySize=auto;html=1;exitX=1;exitY=0.5;exitDx=0;exitDy=0;entryX=0;entryY=0.5;entryDx=0;entryDy=0;" parent="1" source="XzLQBKeTJrF8Z5Bt5rwe-3" target="XzLQBKeTJrF8Z5Bt5rwe-28" edge="1">
          <mxGeometry relative="1" as="geometry" />
        </mxCell>
        <mxCell id="XzLQBKeTJrF8Z5Bt5rwe-34" style="edgeStyle=orthogonalEdgeStyle;rounded=0;orthogonalLoop=1;jettySize=auto;html=1;exitX=1;exitY=0.5;exitDx=0;exitDy=0;entryX=0;entryY=0.5;entryDx=0;entryDy=0;" parent="1" source="XzLQBKeTJrF8Z5Bt5rwe-3" target="XzLQBKeTJrF8Z5Bt5rwe-29" edge="1">
          <mxGeometry relative="1" as="geometry" />
        </mxCell>
        <mxCell id="D_7xWSGTbG8qMXm1kdTH-132" style="edgeStyle=orthogonalEdgeStyle;rounded=0;orthogonalLoop=1;jettySize=auto;html=1;exitX=1;exitY=0.5;exitDx=0;exitDy=0;entryX=0;entryY=0.5;entryDx=0;entryDy=0;" edge="1" parent="1" source="XzLQBKeTJrF8Z5Bt5rwe-3" target="XzLQBKeTJrF8Z5Bt5rwe-2">
          <mxGeometry relative="1" as="geometry" />
        </mxCell>
        <mxCell id="XzLQBKeTJrF8Z5Bt5rwe-3" value="智能指针" style="rounded=0;whiteSpace=wrap;html=1;" parent="1" vertex="1">
          <mxGeometry x="-770" y="2030" width="120" height="60" as="geometry" />
        </mxCell>
        <mxCell id="XzLQBKeTJrF8Z5Bt5rwe-13" style="edgeStyle=orthogonalEdgeStyle;rounded=0;orthogonalLoop=1;jettySize=auto;html=1;exitX=0.5;exitY=1;exitDx=0;exitDy=0;entryX=1;entryY=0.5;entryDx=0;entryDy=0;" parent="1" source="XzLQBKeTJrF8Z5Bt5rwe-5" target="XzLQBKeTJrF8Z5Bt5rwe-8" edge="1">
          <mxGeometry relative="1" as="geometry" />
        </mxCell>
        <mxCell id="XzLQBKeTJrF8Z5Bt5rwe-5" value="声明无法看出指向的是对象还是对象数组" style="rounded=0;whiteSpace=wrap;html=1;" parent="1" vertex="1">
          <mxGeometry x="-110.25" y="1490" width="120" height="60" as="geometry" />
        </mxCell>
        <mxCell id="XzLQBKeTJrF8Z5Bt5rwe-9" style="edgeStyle=orthogonalEdgeStyle;rounded=0;orthogonalLoop=1;jettySize=auto;html=1;exitX=0.5;exitY=1;exitDx=0;exitDy=0;entryX=0.5;entryY=0;entryDx=0;entryDy=0;" parent="1" source="XzLQBKeTJrF8Z5Bt5rwe-6" target="XzLQBKeTJrF8Z5Bt5rwe-7" edge="1">
          <mxGeometry relative="1" as="geometry" />
        </mxCell>
        <mxCell id="XzLQBKeTJrF8Z5Bt5rwe-6" value="声明无法反映它指向对象的生命周期，不知道是否应该销毁对象" style="rounded=0;whiteSpace=wrap;html=1;" parent="1" vertex="1">
          <mxGeometry x="-270.25" y="1400" width="120" height="60" as="geometry" />
        </mxCell>
        <mxCell id="XzLQBKeTJrF8Z5Bt5rwe-11" style="edgeStyle=orthogonalEdgeStyle;rounded=0;orthogonalLoop=1;jettySize=auto;html=1;exitX=0.5;exitY=1;exitDx=0;exitDy=0;entryX=0.5;entryY=0;entryDx=0;entryDy=0;" parent="1" source="XzLQBKeTJrF8Z5Bt5rwe-7" target="XzLQBKeTJrF8Z5Bt5rwe-8" edge="1">
          <mxGeometry relative="1" as="geometry" />
        </mxCell>
        <mxCell id="XzLQBKeTJrF8Z5Bt5rwe-7" value="没法直接看出怎样销毁指向的内存，是使用delete还是其他定制的销毁函数" style="rounded=0;whiteSpace=wrap;html=1;" parent="1" vertex="1">
          <mxGeometry x="-270.25" y="1520" width="120" height="60" as="geometry" />
        </mxCell>
        <mxCell id="XzLQBKeTJrF8Z5Bt5rwe-16" style="edgeStyle=orthogonalEdgeStyle;rounded=0;orthogonalLoop=1;jettySize=auto;html=1;exitX=0.5;exitY=1;exitDx=0;exitDy=0;" parent="1" source="XzLQBKeTJrF8Z5Bt5rwe-8" target="XzLQBKeTJrF8Z5Bt5rwe-15" edge="1">
          <mxGeometry relative="1" as="geometry" />
        </mxCell>
        <mxCell id="XzLQBKeTJrF8Z5Bt5rwe-8" value="无法直接判断使用delete还是使用delete[]" style="rounded=0;whiteSpace=wrap;html=1;" parent="1" vertex="1">
          <mxGeometry x="-270.25" y="1640" width="120" height="60" as="geometry" />
        </mxCell>
        <mxCell id="XzLQBKeTJrF8Z5Bt5rwe-10" value="人为判定正确" style="text;html=1;align=center;verticalAlign=middle;resizable=0;points=[];autosize=1;strokeColor=none;fillColor=none;" parent="1" vertex="1">
          <mxGeometry x="-302.75" y="1480" width="90" height="20" as="geometry" />
        </mxCell>
        <mxCell id="XzLQBKeTJrF8Z5Bt5rwe-12" value="判断使用delete" style="text;html=1;align=center;verticalAlign=middle;resizable=0;points=[];autosize=1;strokeColor=none;fillColor=none;" parent="1" vertex="1">
          <mxGeometry x="-312.75" y="1600" width="100" height="20" as="geometry" />
        </mxCell>
        <mxCell id="XzLQBKeTJrF8Z5Bt5rwe-14" value="导致" style="text;html=1;align=center;verticalAlign=middle;resizable=0;points=[];autosize=1;strokeColor=none;fillColor=none;" parent="1" vertex="1">
          <mxGeometry x="-45.75" y="1590" width="40" height="20" as="geometry" />
        </mxCell>
        <mxCell id="XzLQBKeTJrF8Z5Bt5rwe-15" value="无法保证一定被销毁一次（尤其是在有异常控制流的情况下，如break,exception,return）" style="rounded=0;whiteSpace=wrap;html=1;" parent="1" vertex="1">
          <mxGeometry x="-270.25" y="1760" width="120" height="60" as="geometry" />
        </mxCell>
        <mxCell id="XzLQBKeTJrF8Z5Bt5rwe-17" value="人为判定正确" style="text;html=1;align=center;verticalAlign=middle;resizable=0;points=[];autosize=1;strokeColor=none;fillColor=none;" parent="1" vertex="1">
          <mxGeometry x="-302.75" y="1720" width="90" height="20" as="geometry" />
        </mxCell>
        <mxCell id="XzLQBKeTJrF8Z5Bt5rwe-21" style="edgeStyle=orthogonalEdgeStyle;rounded=0;orthogonalLoop=1;jettySize=auto;html=1;exitX=0;exitY=0.5;exitDx=0;exitDy=0;entryX=1;entryY=0.5;entryDx=0;entryDy=0;" parent="1" source="XzLQBKeTJrF8Z5Bt5rwe-20" target="XzLQBKeTJrF8Z5Bt5rwe-15" edge="1">
          <mxGeometry relative="1" as="geometry" />
        </mxCell>
        <mxCell id="XzLQBKeTJrF8Z5Bt5rwe-20" value="没办法判断指针是否垂悬" style="rounded=0;whiteSpace=wrap;html=1;" parent="1" vertex="1">
          <mxGeometry x="-62.75" y="1760" width="120" height="60" as="geometry" />
        </mxCell>
        <mxCell id="XzLQBKeTJrF8Z5Bt5rwe-22" value="影响" style="text;html=1;align=center;verticalAlign=middle;resizable=0;points=[];autosize=1;strokeColor=none;fillColor=none;" parent="1" vertex="1">
          <mxGeometry x="-125.75" y="1764" width="40" height="20" as="geometry" />
        </mxCell>
        <mxCell id="XzLQBKeTJrF8Z5Bt5rwe-25" value="缺点" style="text;html=1;align=center;verticalAlign=middle;resizable=0;points=[];autosize=1;strokeColor=none;fillColor=none;" parent="1" vertex="1">
          <mxGeometry x="-380.25" y="1610" width="40" height="20" as="geometry" />
        </mxCell>
        <mxCell id="XzLQBKeTJrF8Z5Bt5rwe-38" style="edgeStyle=orthogonalEdgeStyle;rounded=0;orthogonalLoop=1;jettySize=auto;html=1;exitX=0.5;exitY=1;exitDx=0;exitDy=0;" parent="1" source="XzLQBKeTJrF8Z5Bt5rwe-26" target="XzLQBKeTJrF8Z5Bt5rwe-27" edge="1">
          <mxGeometry relative="1" as="geometry" />
        </mxCell>
        <mxCell id="XzLQBKeTJrF8Z5Bt5rwe-26" value="auto_ptr" style="rounded=0;whiteSpace=wrap;html=1;" parent="1" vertex="1">
          <mxGeometry x="-380" y="1880" width="120" height="60" as="geometry" />
        </mxCell>
        <mxCell id="XzLQBKeTJrF8Z5Bt5rwe-58" style="edgeStyle=orthogonalEdgeStyle;rounded=0;orthogonalLoop=1;jettySize=auto;html=1;exitX=0.5;exitY=1;exitDx=0;exitDy=0;entryX=0.5;entryY=0;entryDx=0;entryDy=0;" parent="1" source="XzLQBKeTJrF8Z5Bt5rwe-27" target="XzLQBKeTJrF8Z5Bt5rwe-28" edge="1">
          <mxGeometry relative="1" as="geometry" />
        </mxCell>
        <mxCell id="XzLQBKeTJrF8Z5Bt5rwe-27" value="unique_ptr" style="rounded=0;whiteSpace=wrap;html=1;" parent="1" vertex="1">
          <mxGeometry x="-380" y="2000" width="120" height="60" as="geometry" />
        </mxCell>
        <mxCell id="B7_kebNxeHdtV8KWOShU-16" style="edgeStyle=orthogonalEdgeStyle;rounded=0;orthogonalLoop=1;jettySize=auto;html=1;exitX=1;exitY=0.5;exitDx=0;exitDy=0;entryX=0;entryY=0.5;entryDx=0;entryDy=0;" parent="1" source="XzLQBKeTJrF8Z5Bt5rwe-28" target="B7_kebNxeHdtV8KWOShU-14" edge="1">
          <mxGeometry relative="1" as="geometry" />
        </mxCell>
        <mxCell id="D_7xWSGTbG8qMXm1kdTH-20" style="edgeStyle=orthogonalEdgeStyle;rounded=0;orthogonalLoop=1;jettySize=auto;html=1;exitX=1;exitY=0.5;exitDx=0;exitDy=0;entryX=0;entryY=0.25;entryDx=0;entryDy=0;" edge="1" parent="1" source="XzLQBKeTJrF8Z5Bt5rwe-28" target="D_7xWSGTbG8qMXm1kdTH-14">
          <mxGeometry relative="1" as="geometry" />
        </mxCell>
        <mxCell id="D_7xWSGTbG8qMXm1kdTH-30" style="edgeStyle=orthogonalEdgeStyle;rounded=0;orthogonalLoop=1;jettySize=auto;html=1;exitX=1;exitY=0.5;exitDx=0;exitDy=0;entryX=-0.011;entryY=0.2;entryDx=0;entryDy=0;entryPerimeter=0;" edge="1" parent="1" source="XzLQBKeTJrF8Z5Bt5rwe-28" target="D_7xWSGTbG8qMXm1kdTH-28">
          <mxGeometry relative="1" as="geometry">
            <Array as="points">
              <mxPoint x="-240" y="2270" />
              <mxPoint x="-240" y="2496" />
            </Array>
          </mxGeometry>
        </mxCell>
        <mxCell id="XzLQBKeTJrF8Z5Bt5rwe-28" value="shared_ptr" style="rounded=0;whiteSpace=wrap;html=1;" parent="1" vertex="1">
          <mxGeometry x="-380" y="2240" width="120" height="60" as="geometry" />
        </mxCell>
        <mxCell id="D_7xWSGTbG8qMXm1kdTH-65" style="edgeStyle=orthogonalEdgeStyle;rounded=0;orthogonalLoop=1;jettySize=auto;html=1;exitX=1;exitY=0.5;exitDx=0;exitDy=0;" edge="1" parent="1" source="XzLQBKeTJrF8Z5Bt5rwe-29" target="D_7xWSGTbG8qMXm1kdTH-64">
          <mxGeometry relative="1" as="geometry" />
        </mxCell>
        <mxCell id="D_7xWSGTbG8qMXm1kdTH-70" style="edgeStyle=orthogonalEdgeStyle;rounded=0;orthogonalLoop=1;jettySize=auto;html=1;exitX=1;exitY=0.5;exitDx=0;exitDy=0;entryX=0;entryY=0.5;entryDx=0;entryDy=0;" edge="1" parent="1" source="XzLQBKeTJrF8Z5Bt5rwe-29" target="D_7xWSGTbG8qMXm1kdTH-69">
          <mxGeometry relative="1" as="geometry" />
        </mxCell>
        <mxCell id="D_7xWSGTbG8qMXm1kdTH-111" style="edgeStyle=orthogonalEdgeStyle;rounded=0;orthogonalLoop=1;jettySize=auto;html=1;exitX=1;exitY=0.5;exitDx=0;exitDy=0;" edge="1" parent="1" source="XzLQBKeTJrF8Z5Bt5rwe-29">
          <mxGeometry relative="1" as="geometry">
            <mxPoint x="60" y="2540" as="targetPoint" />
            <Array as="points">
              <mxPoint x="-230" y="2833" />
              <mxPoint x="-230" y="2595" />
            </Array>
          </mxGeometry>
        </mxCell>
        <mxCell id="XzLQBKeTJrF8Z5Bt5rwe-29" value="weak_ptr" style="rounded=0;whiteSpace=wrap;html=1;" parent="1" vertex="1">
          <mxGeometry x="-380" y="2803" width="120" height="60" as="geometry" />
        </mxCell>
        <mxCell id="XzLQBKeTJrF8Z5Bt5rwe-36" value="优于" style="text;html=1;align=center;verticalAlign=middle;resizable=0;points=[];autosize=1;strokeColor=none;fillColor=none;" parent="1" vertex="1">
          <mxGeometry x="-317.5" y="1960" width="40" height="20" as="geometry" />
        </mxCell>
        <mxCell id="XzLQBKeTJrF8Z5Bt5rwe-41" style="edgeStyle=orthogonalEdgeStyle;rounded=0;orthogonalLoop=1;jettySize=auto;html=1;exitX=1;exitY=0.5;exitDx=0;exitDy=0;entryX=0;entryY=0.5;entryDx=0;entryDy=0;" parent="1" source="XzLQBKeTJrF8Z5Bt5rwe-27" target="XzLQBKeTJrF8Z5Bt5rwe-44" edge="1">
          <mxGeometry relative="1" as="geometry">
            <mxPoint x="-50" y="2030" as="sourcePoint" />
            <mxPoint x="-210" y="2030" as="targetPoint" />
          </mxGeometry>
        </mxCell>
        <mxCell id="XzLQBKeTJrF8Z5Bt5rwe-44" value="使用定制的deleter会导致unique_ptr占的空间大于裸指针" style="rounded=0;whiteSpace=wrap;html=1;" parent="1" vertex="1">
          <mxGeometry x="-110.25" y="2000" width="120" height="60" as="geometry" />
        </mxCell>
        <mxCell id="XzLQBKeTJrF8Z5Bt5rwe-46" value="&lt;span style=&quot;&quot;&gt;exclusive ownership&lt;/span&gt;" style="text;html=1;align=center;verticalAlign=middle;resizable=0;points=[];autosize=1;strokeColor=none;fillColor=none;" parent="1" vertex="1">
          <mxGeometry x="-510" y="2010" width="120" height="20" as="geometry" />
        </mxCell>
        <mxCell id="XzLQBKeTJrF8Z5Bt5rwe-47" value="是move only的,move操作将源unique_ptr置为空" style="ellipse;shape=cloud;whiteSpace=wrap;html=1;" parent="1" vertex="1">
          <mxGeometry x="-380" y="2070" width="120" height="80" as="geometry" />
        </mxCell>
        <mxCell id="XzLQBKeTJrF8Z5Bt5rwe-48" value="可定制deleter" style="text;html=1;align=center;verticalAlign=middle;resizable=0;points=[];autosize=1;strokeColor=none;fillColor=none;" parent="1" vertex="1">
          <mxGeometry x="-245" y="2010" width="90" height="20" as="geometry" />
        </mxCell>
        <mxCell id="XzLQBKeTJrF8Z5Bt5rwe-49" value="函数指针" style="rounded=0;whiteSpace=wrap;html=1;" parent="1" vertex="1">
          <mxGeometry x="59.75" y="1890" width="120" height="60" as="geometry" />
        </mxCell>
        <mxCell id="XzLQBKeTJrF8Z5Bt5rwe-50" value="callable object" style="rounded=0;whiteSpace=wrap;html=1;" parent="1" vertex="1">
          <mxGeometry x="57.25" y="2000" width="120" height="60" as="geometry" />
        </mxCell>
        <mxCell id="XzLQBKeTJrF8Z5Bt5rwe-51" value="没有capture的lambda&lt;br&gt;" style="rounded=0;whiteSpace=wrap;html=1;" parent="1" vertex="1">
          <mxGeometry x="57.25" y="2140" width="120" height="60" as="geometry" />
        </mxCell>
        <mxCell id="XzLQBKeTJrF8Z5Bt5rwe-52" value="" style="shape=curlyBracket;whiteSpace=wrap;html=1;rounded=1;" parent="1" vertex="1">
          <mxGeometry x="17.25" y="1900" width="20" height="280" as="geometry" />
        </mxCell>
        <mxCell id="XzLQBKeTJrF8Z5Bt5rwe-53" value="" style="shape=curlyBracket;whiteSpace=wrap;html=1;rounded=1;" parent="1" vertex="1">
          <mxGeometry x="-332.75" y="1410" width="20" height="420" as="geometry" />
        </mxCell>
        <mxCell id="XzLQBKeTJrF8Z5Bt5rwe-54" value="不需要额外空间" style="ellipse;shape=cloud;whiteSpace=wrap;html=1;" parent="1" vertex="1">
          <mxGeometry x="189.38" y="2130" width="120" height="80" as="geometry" />
        </mxCell>
        <mxCell id="XzLQBKeTJrF8Z5Bt5rwe-55" value="一个指针的空间" style="ellipse;shape=cloud;whiteSpace=wrap;html=1;" parent="1" vertex="1">
          <mxGeometry x="204.25" y="1880" width="120" height="80" as="geometry" />
        </mxCell>
        <mxCell id="XzLQBKeTJrF8Z5Bt5rwe-56" value="可能很大" style="ellipse;shape=cloud;whiteSpace=wrap;html=1;" parent="1" vertex="1">
          <mxGeometry x="204.25" y="1990" width="120" height="80" as="geometry" />
        </mxCell>
        <mxCell id="XzLQBKeTJrF8Z5Bt5rwe-59" value="可（很方便地）隐式转化为" style="text;html=1;align=center;verticalAlign=middle;resizable=0;points=[];autosize=1;strokeColor=none;fillColor=none;" parent="1" vertex="1">
          <mxGeometry x="-315" y="2160" width="160" height="20" as="geometry" />
        </mxCell>
        <mxCell id="D_7xWSGTbG8qMXm1kdTH-129" style="edgeStyle=orthogonalEdgeStyle;rounded=0;orthogonalLoop=1;jettySize=auto;html=1;exitX=1;exitY=0.5;exitDx=0;exitDy=0;entryX=0;entryY=0.5;entryDx=0;entryDy=0;" edge="1" parent="1" source="psaeY1RlJAv9MAsHN04e-1" target="XzLQBKeTJrF8Z5Bt5rwe-3">
          <mxGeometry relative="1" as="geometry" />
        </mxCell>
        <mxCell id="psaeY1RlJAv9MAsHN04e-1" value="垃圾回收" style="rounded=0;whiteSpace=wrap;html=1;" parent="1" vertex="1">
          <mxGeometry x="-1100" y="1970" width="120" height="60" as="geometry" />
        </mxCell>
        <mxCell id="D_7xWSGTbG8qMXm1kdTH-130" style="edgeStyle=orthogonalEdgeStyle;rounded=0;orthogonalLoop=1;jettySize=auto;html=1;exitX=1;exitY=0.5;exitDx=0;exitDy=0;entryX=0;entryY=0.5;entryDx=0;entryDy=0;" edge="1" parent="1" source="psaeY1RlJAv9MAsHN04e-2" target="XzLQBKeTJrF8Z5Bt5rwe-3">
          <mxGeometry relative="1" as="geometry" />
        </mxCell>
        <mxCell id="psaeY1RlJAv9MAsHN04e-2" value="析构函数" style="rounded=0;whiteSpace=wrap;html=1;" parent="1" vertex="1">
          <mxGeometry x="-1100" y="2190" width="120" height="60" as="geometry" />
        </mxCell>
        <mxCell id="psaeY1RlJAv9MAsHN04e-3" value="自动化" style="ellipse;shape=cloud;whiteSpace=wrap;html=1;" parent="1" vertex="1">
          <mxGeometry x="-1102.5" y="1880" width="120" height="80" as="geometry" />
        </mxCell>
        <mxCell id="psaeY1RlJAv9MAsHN04e-4" value="对所有资源都有效，发生时间可控" style="ellipse;shape=cloud;whiteSpace=wrap;html=1;" parent="1" vertex="1">
          <mxGeometry x="-1100" y="2100" width="120" height="80" as="geometry" />
        </mxCell>
        <mxCell id="D_7xWSGTbG8qMXm1kdTH-137" style="edgeStyle=orthogonalEdgeStyle;rounded=0;orthogonalLoop=1;jettySize=auto;html=1;exitX=1;exitY=0.5;exitDx=0;exitDy=0;entryX=0;entryY=0.5;entryDx=0;entryDy=0;" edge="1" parent="1" source="B7_kebNxeHdtV8KWOShU-1" target="D_7xWSGTbG8qMXm1kdTH-136">
          <mxGeometry relative="1" as="geometry" />
        </mxCell>
        <mxCell id="B7_kebNxeHdtV8KWOShU-1" value="pimpl idiom" style="rounded=0;whiteSpace=wrap;html=1;" parent="1" vertex="1">
          <mxGeometry x="430" y="3170" width="120" height="60" as="geometry" />
        </mxCell>
        <mxCell id="B7_kebNxeHdtV8KWOShU-9" value="两倍于裸指针的内存占用" style="ellipse;shape=cloud;whiteSpace=wrap;html=1;" parent="1" vertex="1">
          <mxGeometry x="-387.5" y="2300" width="120" height="80" as="geometry" />
        </mxCell>
        <mxCell id="B7_kebNxeHdtV8KWOShU-28" style="edgeStyle=orthogonalEdgeStyle;rounded=0;orthogonalLoop=1;jettySize=auto;html=1;exitX=1;exitY=0.5;exitDx=0;exitDy=0;" parent="1" source="B7_kebNxeHdtV8KWOShU-14" target="B7_kebNxeHdtV8KWOShU-17" edge="1">
          <mxGeometry relative="1" as="geometry" />
        </mxCell>
        <mxCell id="B7_kebNxeHdtV8KWOShU-14" value="定制的deleter不是shared_ptr的类型的一部分" style="rounded=0;whiteSpace=wrap;html=1;" parent="1" vertex="1">
          <mxGeometry x="-100" y="2240" width="120" height="60" as="geometry" />
        </mxCell>
        <mxCell id="B7_kebNxeHdtV8KWOShU-15" value="可定制deleter" style="text;html=1;align=center;verticalAlign=middle;resizable=0;points=[];autosize=1;strokeColor=none;fillColor=none;" parent="1" vertex="1">
          <mxGeometry x="-197.5" y="2270" width="90" height="20" as="geometry" />
        </mxCell>
        <mxCell id="D_7xWSGTbG8qMXm1kdTH-11" style="edgeStyle=orthogonalEdgeStyle;rounded=0;orthogonalLoop=1;jettySize=auto;html=1;exitX=1;exitY=0.5;exitDx=0;exitDy=0;entryX=1;entryY=0.5;entryDx=0;entryDy=0;" edge="1" parent="1" source="B7_kebNxeHdtV8KWOShU-17" target="D_7xWSGTbG8qMXm1kdTH-4">
          <mxGeometry relative="1" as="geometry" />
        </mxCell>
        <mxCell id="B7_kebNxeHdtV8KWOShU-17" value="定制的deleter不增加share_ptr的大小" style="rounded=0;whiteSpace=wrap;html=1;" parent="1" vertex="1">
          <mxGeometry x="122.5" y="2240" width="120" height="60" as="geometry" />
        </mxCell>
        <mxCell id="B7_kebNxeHdtV8KWOShU-19" style="edgeStyle=orthogonalEdgeStyle;rounded=0;orthogonalLoop=1;jettySize=auto;html=1;exitX=0.5;exitY=1;exitDx=0;exitDy=0;" parent="1" source="B7_kebNxeHdtV8KWOShU-17" target="B7_kebNxeHdtV8KWOShU-17" edge="1">
          <mxGeometry relative="1" as="geometry" />
        </mxCell>
        <mxCell id="B7_kebNxeHdtV8KWOShU-22" style="edgeStyle=orthogonalEdgeStyle;rounded=0;orthogonalLoop=1;jettySize=auto;html=1;exitX=1;exitY=0.5;exitDx=0;exitDy=0;entryX=0;entryY=0.5;entryDx=0;entryDy=0;" parent="1" source="B7_kebNxeHdtV8KWOShU-20" target="B7_kebNxeHdtV8KWOShU-21" edge="1">
          <mxGeometry relative="1" as="geometry" />
        </mxCell>
        <mxCell id="B7_kebNxeHdtV8KWOShU-20" value="虚继承" style="rounded=0;whiteSpace=wrap;html=1;" parent="1" vertex="1">
          <mxGeometry x="-1530" y="2060" width="120" height="60" as="geometry" />
        </mxCell>
        <mxCell id="B7_kebNxeHdtV8KWOShU-21" value="在继承DAG中，所有被虚继承的基类，在派生类的对象中共享对象" style="rounded=0;whiteSpace=wrap;html=1;" parent="1" vertex="1">
          <mxGeometry x="-1330" y="2060" width="120" height="60" as="geometry" />
        </mxCell>
        <mxCell id="B7_kebNxeHdtV8KWOShU-23" value="定义" style="text;html=1;align=center;verticalAlign=middle;resizable=0;points=[];autosize=1;strokeColor=none;fillColor=none;" parent="1" vertex="1">
          <mxGeometry x="-1390" y="2070" width="40" height="20" as="geometry" />
        </mxCell>
        <mxCell id="B7_kebNxeHdtV8KWOShU-27" value="对结构的影响" style="text;html=1;align=center;verticalAlign=middle;resizable=0;points=[];autosize=1;strokeColor=none;fillColor=none;" parent="1" vertex="1">
          <mxGeometry x="20" y="2250" width="90" height="20" as="geometry" />
        </mxCell>
        <mxCell id="B7_kebNxeHdtV8KWOShU-31" value="T对象" style="rounded=0;whiteSpace=wrap;html=1;" parent="1" vertex="1">
          <mxGeometry x="69.38" y="2365" width="120" height="60" as="geometry" />
        </mxCell>
        <mxCell id="D_7xWSGTbG8qMXm1kdTH-24" style="edgeStyle=orthogonalEdgeStyle;rounded=0;orthogonalLoop=1;jettySize=auto;html=1;exitX=1;exitY=0.25;exitDx=0;exitDy=0;entryX=0;entryY=0.5;entryDx=0;entryDy=0;" edge="1" parent="1" source="D_7xWSGTbG8qMXm1kdTH-1" target="D_7xWSGTbG8qMXm1kdTH-23">
          <mxGeometry relative="1" as="geometry">
            <mxPoint x="380" y="2470" as="targetPoint" />
          </mxGeometry>
        </mxCell>
        <mxCell id="D_7xWSGTbG8qMXm1kdTH-1" value="控制块" style="swimlane;fontStyle=0;childLayout=stackLayout;horizontal=1;startSize=30;horizontalStack=0;resizeParent=1;resizeParentMax=0;resizeLast=0;collapsible=1;marginBottom=0;" vertex="1" parent="1">
          <mxGeometry x="64.25" y="2520" width="140" height="120" as="geometry" />
        </mxCell>
        <mxCell id="D_7xWSGTbG8qMXm1kdTH-2" value="引用计数" style="text;strokeColor=none;fillColor=none;align=left;verticalAlign=middle;spacingLeft=4;spacingRight=4;overflow=hidden;points=[[0,0.5],[1,0.5]];portConstraint=eastwest;rotatable=0;" vertex="1" parent="D_7xWSGTbG8qMXm1kdTH-1">
          <mxGeometry y="30" width="140" height="30" as="geometry" />
        </mxCell>
        <mxCell id="D_7xWSGTbG8qMXm1kdTH-3" value="弱计数" style="text;strokeColor=none;fillColor=none;align=left;verticalAlign=middle;spacingLeft=4;spacingRight=4;overflow=hidden;points=[[0,0.5],[1,0.5]];portConstraint=eastwest;rotatable=0;" vertex="1" parent="D_7xWSGTbG8qMXm1kdTH-1">
          <mxGeometry y="60" width="140" height="30" as="geometry" />
        </mxCell>
        <mxCell id="D_7xWSGTbG8qMXm1kdTH-4" value="定制的deleter、allocator" style="text;strokeColor=none;fillColor=none;align=left;verticalAlign=middle;spacingLeft=4;spacingRight=4;overflow=hidden;points=[[0,0.5],[1,0.5]];portConstraint=eastwest;rotatable=0;" vertex="1" parent="D_7xWSGTbG8qMXm1kdTH-1">
          <mxGeometry y="90" width="140" height="30" as="geometry" />
        </mxCell>
        <mxCell id="D_7xWSGTbG8qMXm1kdTH-12" value="原因" style="text;html=1;align=center;verticalAlign=middle;resizable=0;points=[];autosize=1;strokeColor=none;fillColor=none;" vertex="1" parent="1">
          <mxGeometry x="270" y="2400" width="40" height="20" as="geometry" />
        </mxCell>
        <mxCell id="D_7xWSGTbG8qMXm1kdTH-14" value="shared_ptr1" style="swimlane;fontStyle=0;childLayout=stackLayout;horizontal=1;startSize=30;horizontalStack=0;resizeParent=1;resizeParentMax=0;resizeLast=0;collapsible=1;marginBottom=0;" vertex="1" parent="1">
          <mxGeometry x="-220" y="2350" width="140" height="90" as="geometry" />
        </mxCell>
        <mxCell id="D_7xWSGTbG8qMXm1kdTH-15" value="指向对象的指针" style="text;strokeColor=none;fillColor=none;align=left;verticalAlign=middle;spacingLeft=4;spacingRight=4;overflow=hidden;points=[[0,0.5],[1,0.5]];portConstraint=eastwest;rotatable=0;" vertex="1" parent="D_7xWSGTbG8qMXm1kdTH-14">
          <mxGeometry y="30" width="140" height="30" as="geometry" />
        </mxCell>
        <mxCell id="D_7xWSGTbG8qMXm1kdTH-16" value="指向控制块的指针" style="text;strokeColor=none;fillColor=none;align=left;verticalAlign=middle;spacingLeft=4;spacingRight=4;overflow=hidden;points=[[0,0.5],[1,0.5]];portConstraint=eastwest;rotatable=0;" vertex="1" parent="D_7xWSGTbG8qMXm1kdTH-14">
          <mxGeometry y="60" width="140" height="30" as="geometry" />
        </mxCell>
        <mxCell id="D_7xWSGTbG8qMXm1kdTH-21" style="edgeStyle=orthogonalEdgeStyle;rounded=0;orthogonalLoop=1;jettySize=auto;html=1;exitX=1;exitY=0.5;exitDx=0;exitDy=0;entryX=0;entryY=0.5;entryDx=0;entryDy=0;" edge="1" parent="1" source="D_7xWSGTbG8qMXm1kdTH-15" target="B7_kebNxeHdtV8KWOShU-31">
          <mxGeometry relative="1" as="geometry" />
        </mxCell>
        <mxCell id="D_7xWSGTbG8qMXm1kdTH-22" style="edgeStyle=orthogonalEdgeStyle;rounded=0;orthogonalLoop=1;jettySize=auto;html=1;exitX=1;exitY=0.5;exitDx=0;exitDy=0;" edge="1" parent="1" source="D_7xWSGTbG8qMXm1kdTH-16">
          <mxGeometry relative="1" as="geometry">
            <mxPoint x="60" y="2540" as="targetPoint" />
            <Array as="points">
              <mxPoint x="-4" y="2425" />
              <mxPoint x="-4" y="2460" />
            </Array>
          </mxGeometry>
        </mxCell>
        <mxCell id="D_7xWSGTbG8qMXm1kdTH-49" style="edgeStyle=orthogonalEdgeStyle;rounded=0;orthogonalLoop=1;jettySize=auto;html=1;entryX=0;entryY=0.5;entryDx=0;entryDy=0;" edge="1" parent="1" target="D_7xWSGTbG8qMXm1kdTH-48">
          <mxGeometry relative="1" as="geometry">
            <mxPoint x="520" y="2550" as="sourcePoint" />
          </mxGeometry>
        </mxCell>
        <mxCell id="D_7xWSGTbG8qMXm1kdTH-51" style="edgeStyle=orthogonalEdgeStyle;rounded=0;orthogonalLoop=1;jettySize=auto;html=1;exitX=1;exitY=0.5;exitDx=0;exitDy=0;entryX=0;entryY=0.5;entryDx=0;entryDy=0;" edge="1" parent="1" source="D_7xWSGTbG8qMXm1kdTH-23" target="D_7xWSGTbG8qMXm1kdTH-50">
          <mxGeometry relative="1" as="geometry">
            <mxPoint x="540" y="2430" as="sourcePoint" />
          </mxGeometry>
        </mxCell>
        <mxCell id="D_7xWSGTbG8qMXm1kdTH-23" value="如何保证控制块只被创建一次" style="rounded=0;whiteSpace=wrap;html=1;" vertex="1" parent="1">
          <mxGeometry x="400" y="2520" width="120" height="60" as="geometry" />
        </mxCell>
        <mxCell id="D_7xWSGTbG8qMXm1kdTH-25" value="引入问题" style="text;html=1;align=center;verticalAlign=middle;resizable=0;points=[];autosize=1;strokeColor=none;fillColor=none;" vertex="1" parent="1">
          <mxGeometry x="309.38" y="2530" width="60" height="20" as="geometry" />
        </mxCell>
        <mxCell id="D_7xWSGTbG8qMXm1kdTH-27" value="shared_ptr2" style="swimlane;fontStyle=0;childLayout=stackLayout;horizontal=1;startSize=30;horizontalStack=0;resizeParent=1;resizeParentMax=0;resizeLast=0;collapsible=1;marginBottom=0;" vertex="1" parent="1">
          <mxGeometry x="-230" y="2460" width="140" height="90" as="geometry" />
        </mxCell>
        <mxCell id="D_7xWSGTbG8qMXm1kdTH-28" value="指向对象的指针" style="text;strokeColor=none;fillColor=none;align=left;verticalAlign=middle;spacingLeft=4;spacingRight=4;overflow=hidden;points=[[0,0.5],[1,0.5]];portConstraint=eastwest;rotatable=0;" vertex="1" parent="D_7xWSGTbG8qMXm1kdTH-27">
          <mxGeometry y="30" width="140" height="30" as="geometry" />
        </mxCell>
        <mxCell id="D_7xWSGTbG8qMXm1kdTH-29" value="指向控制块的指针" style="text;strokeColor=none;fillColor=none;align=left;verticalAlign=middle;spacingLeft=4;spacingRight=4;overflow=hidden;points=[[0,0.5],[1,0.5]];portConstraint=eastwest;rotatable=0;" vertex="1" parent="D_7xWSGTbG8qMXm1kdTH-27">
          <mxGeometry y="60" width="140" height="30" as="geometry" />
        </mxCell>
        <mxCell id="D_7xWSGTbG8qMXm1kdTH-31" style="edgeStyle=orthogonalEdgeStyle;rounded=0;orthogonalLoop=1;jettySize=auto;html=1;exitX=1;exitY=0.5;exitDx=0;exitDy=0;entryX=0;entryY=0.5;entryDx=0;entryDy=0;" edge="1" parent="1" source="D_7xWSGTbG8qMXm1kdTH-28" target="B7_kebNxeHdtV8KWOShU-31">
          <mxGeometry relative="1" as="geometry">
            <Array as="points">
              <mxPoint x="-40" y="2505" />
              <mxPoint x="-40" y="2395" />
            </Array>
          </mxGeometry>
        </mxCell>
        <mxCell id="D_7xWSGTbG8qMXm1kdTH-32" style="edgeStyle=orthogonalEdgeStyle;rounded=0;orthogonalLoop=1;jettySize=auto;html=1;exitX=1;exitY=0.5;exitDx=0;exitDy=0;entryX=-0.024;entryY=0.163;entryDx=0;entryDy=0;entryPerimeter=0;" edge="1" parent="1" source="D_7xWSGTbG8qMXm1kdTH-29" target="D_7xWSGTbG8qMXm1kdTH-1">
          <mxGeometry relative="1" as="geometry">
            <Array as="points">
              <mxPoint x="61" y="2535" />
            </Array>
          </mxGeometry>
        </mxCell>
        <mxCell id="D_7xWSGTbG8qMXm1kdTH-33" value="实例" style="text;html=1;align=center;verticalAlign=middle;resizable=0;points=[];autosize=1;strokeColor=none;fillColor=none;" vertex="1" parent="1">
          <mxGeometry x="-280" y="2400" width="40" height="20" as="geometry" />
        </mxCell>
        <mxCell id="D_7xWSGTbG8qMXm1kdTH-37" value="make_shared一定创建控制块" style="rounded=0;whiteSpace=wrap;html=1;" vertex="1" parent="1">
          <mxGeometry x="650" y="2550" width="120" height="60" as="geometry" />
        </mxCell>
        <mxCell id="D_7xWSGTbG8qMXm1kdTH-41" style="edgeStyle=orthogonalEdgeStyle;rounded=0;orthogonalLoop=1;jettySize=auto;html=1;exitX=1;exitY=0.5;exitDx=0;exitDy=0;entryX=0;entryY=0.5;entryDx=0;entryDy=0;" edge="1" parent="1" source="D_7xWSGTbG8qMXm1kdTH-38" target="D_7xWSGTbG8qMXm1kdTH-37">
          <mxGeometry relative="1" as="geometry" />
        </mxCell>
        <mxCell id="D_7xWSGTbG8qMXm1kdTH-43" style="edgeStyle=orthogonalEdgeStyle;rounded=0;orthogonalLoop=1;jettySize=auto;html=1;exitX=1;exitY=0.5;exitDx=0;exitDy=0;entryX=0;entryY=0.5;entryDx=0;entryDy=0;" edge="1" parent="1" source="D_7xWSGTbG8qMXm1kdTH-38" target="D_7xWSGTbG8qMXm1kdTH-42">
          <mxGeometry relative="1" as="geometry" />
        </mxCell>
        <mxCell id="D_7xWSGTbG8qMXm1kdTH-46" style="edgeStyle=orthogonalEdgeStyle;rounded=0;orthogonalLoop=1;jettySize=auto;html=1;exitX=1;exitY=0.5;exitDx=0;exitDy=0;entryX=0;entryY=0.5;entryDx=0;entryDy=0;" edge="1" parent="1" source="D_7xWSGTbG8qMXm1kdTH-38" target="D_7xWSGTbG8qMXm1kdTH-45">
          <mxGeometry relative="1" as="geometry" />
        </mxCell>
        <mxCell id="D_7xWSGTbG8qMXm1kdTH-38" value="c++控制块创建规则" style="rounded=0;whiteSpace=wrap;html=1;" vertex="1" parent="1">
          <mxGeometry x="400" y="2620" width="120" height="60" as="geometry" />
        </mxCell>
        <mxCell id="D_7xWSGTbG8qMXm1kdTH-39" style="edgeStyle=orthogonalEdgeStyle;rounded=0;orthogonalLoop=1;jettySize=auto;html=1;exitX=1.016;exitY=0.05;exitDx=0;exitDy=0;entryX=0;entryY=0.5;entryDx=0;entryDy=0;exitPerimeter=0;" edge="1" parent="1" source="D_7xWSGTbG8qMXm1kdTH-2" target="D_7xWSGTbG8qMXm1kdTH-38">
          <mxGeometry relative="1" as="geometry" />
        </mxCell>
        <mxCell id="D_7xWSGTbG8qMXm1kdTH-40" value="make_shared创建一个新对象" style="ellipse;shape=cloud;whiteSpace=wrap;html=1;" vertex="1" parent="1">
          <mxGeometry x="780" y="2540" width="120" height="80" as="geometry" />
        </mxCell>
        <mxCell id="D_7xWSGTbG8qMXm1kdTH-42" value="从独占的智能指针创建shared_ptr" style="rounded=0;whiteSpace=wrap;html=1;" vertex="1" parent="1">
          <mxGeometry x="650" y="2620" width="120" height="60" as="geometry" />
        </mxCell>
        <mxCell id="D_7xWSGTbG8qMXm1kdTH-45" value="从裸指针创建shared_ptr" style="rounded=0;whiteSpace=wrap;html=1;" vertex="1" parent="1">
          <mxGeometry x="650" y="2700" width="120" height="60" as="geometry" />
        </mxCell>
        <mxCell id="D_7xWSGTbG8qMXm1kdTH-47" value="因为没办法知道旧控制块的地址" style="ellipse;shape=cloud;whiteSpace=wrap;html=1;" vertex="1" parent="1">
          <mxGeometry x="650" y="2780" width="120" height="80" as="geometry" />
        </mxCell>
        <mxCell id="D_7xWSGTbG8qMXm1kdTH-53" style="edgeStyle=orthogonalEdgeStyle;rounded=0;orthogonalLoop=1;jettySize=auto;html=1;exitX=1;exitY=0.5;exitDx=0;exitDy=0;entryX=0;entryY=0.5;entryDx=0;entryDy=0;" edge="1" parent="1" source="D_7xWSGTbG8qMXm1kdTH-48" target="D_7xWSGTbG8qMXm1kdTH-52">
          <mxGeometry relative="1" as="geometry" />
        </mxCell>
        <mxCell id="D_7xWSGTbG8qMXm1kdTH-109" style="edgeStyle=orthogonalEdgeStyle;rounded=0;orthogonalLoop=1;jettySize=auto;html=1;exitX=1;exitY=0.5;exitDx=0;exitDy=0;entryX=0;entryY=0.5;entryDx=0;entryDy=0;" edge="1" parent="1" source="D_7xWSGTbG8qMXm1kdTH-48" target="D_7xWSGTbG8qMXm1kdTH-108">
          <mxGeometry relative="1" as="geometry" />
        </mxCell>
        <mxCell id="D_7xWSGTbG8qMXm1kdTH-126" style="edgeStyle=orthogonalEdgeStyle;rounded=0;orthogonalLoop=1;jettySize=auto;html=1;exitX=1;exitY=0.5;exitDx=0;exitDy=0;entryX=0;entryY=0.5;entryDx=0;entryDy=0;" edge="1" parent="1" source="D_7xWSGTbG8qMXm1kdTH-48" target="D_7xWSGTbG8qMXm1kdTH-123">
          <mxGeometry relative="1" as="geometry" />
        </mxCell>
        <mxCell id="D_7xWSGTbG8qMXm1kdTH-48" value="不要从裸指针创建shared_ptr" style="rounded=0;whiteSpace=wrap;html=1;" vertex="1" parent="1">
          <mxGeometry x="560" y="2180" width="120" height="60" as="geometry" />
        </mxCell>
        <mxCell id="D_7xWSGTbG8qMXm1kdTH-90" style="edgeStyle=orthogonalEdgeStyle;rounded=0;orthogonalLoop=1;jettySize=auto;html=1;exitX=1;exitY=0.5;exitDx=0;exitDy=0;entryX=0;entryY=0.4;entryDx=0;entryDy=0;entryPerimeter=0;" edge="1" parent="1" source="D_7xWSGTbG8qMXm1kdTH-50" target="D_7xWSGTbG8qMXm1kdTH-92">
          <mxGeometry relative="1" as="geometry">
            <mxPoint x="750" y="2070" as="targetPoint" />
          </mxGeometry>
        </mxCell>
        <mxCell id="D_7xWSGTbG8qMXm1kdTH-97" style="edgeStyle=orthogonalEdgeStyle;rounded=0;orthogonalLoop=1;jettySize=auto;html=1;exitX=1;exitY=0.5;exitDx=0;exitDy=0;entryX=0;entryY=0.5;entryDx=0;entryDy=0;" edge="1" parent="1" source="D_7xWSGTbG8qMXm1kdTH-50" target="D_7xWSGTbG8qMXm1kdTH-95">
          <mxGeometry relative="1" as="geometry" />
        </mxCell>
        <mxCell id="D_7xWSGTbG8qMXm1kdTH-102" style="edgeStyle=orthogonalEdgeStyle;rounded=0;orthogonalLoop=1;jettySize=auto;html=1;exitX=1;exitY=0.5;exitDx=0;exitDy=0;entryX=0;entryY=0.5;entryDx=0;entryDy=0;" edge="1" parent="1" source="D_7xWSGTbG8qMXm1kdTH-50" target="D_7xWSGTbG8qMXm1kdTH-99">
          <mxGeometry relative="1" as="geometry" />
        </mxCell>
        <mxCell id="D_7xWSGTbG8qMXm1kdTH-50" value="尽可能用make_shared创建shared_ptr" style="rounded=0;whiteSpace=wrap;html=1;" vertex="1" parent="1">
          <mxGeometry x="560" y="1940" width="120" height="60" as="geometry" />
        </mxCell>
        <mxCell id="D_7xWSGTbG8qMXm1kdTH-52" value="make_shared不支持定制化deleter，使用new的结果作为创建shared_ptr的参数" style="rounded=0;whiteSpace=wrap;html=1;" vertex="1" parent="1">
          <mxGeometry x="780" y="2180" width="120" height="60" as="geometry" />
        </mxCell>
        <mxCell id="D_7xWSGTbG8qMXm1kdTH-54" value="例外" style="text;html=1;align=center;verticalAlign=middle;resizable=0;points=[];autosize=1;strokeColor=none;fillColor=none;" vertex="1" parent="1">
          <mxGeometry x="700" y="2185" width="40" height="20" as="geometry" />
        </mxCell>
        <mxCell id="D_7xWSGTbG8qMXm1kdTH-79" style="edgeStyle=orthogonalEdgeStyle;rounded=0;orthogonalLoop=1;jettySize=auto;html=1;exitX=1;exitY=0.5;exitDx=0;exitDy=0;entryX=0;entryY=0.5;entryDx=0;entryDy=0;" edge="1" parent="1" source="D_7xWSGTbG8qMXm1kdTH-55" target="D_7xWSGTbG8qMXm1kdTH-77">
          <mxGeometry relative="1" as="geometry" />
        </mxCell>
        <mxCell id="D_7xWSGTbG8qMXm1kdTH-55" value="不参与拥有所指向的对象" style="rounded=0;whiteSpace=wrap;html=1;" vertex="1" parent="1">
          <mxGeometry x="-27.5" y="2713" width="120" height="60" as="geometry" />
        </mxCell>
        <mxCell id="D_7xWSGTbG8qMXm1kdTH-80" style="edgeStyle=orthogonalEdgeStyle;rounded=0;orthogonalLoop=1;jettySize=auto;html=1;exitX=1;exitY=0.5;exitDx=0;exitDy=0;entryX=0;entryY=0.5;entryDx=0;entryDy=0;" edge="1" parent="1" source="D_7xWSGTbG8qMXm1kdTH-59" target="D_7xWSGTbG8qMXm1kdTH-77">
          <mxGeometry relative="1" as="geometry" />
        </mxCell>
        <mxCell id="D_7xWSGTbG8qMXm1kdTH-59" value="可以检测出自己是否垂悬" style="rounded=0;whiteSpace=wrap;html=1;" vertex="1" parent="1">
          <mxGeometry x="-27.5" y="2803" width="120" height="60" as="geometry" />
        </mxCell>
        <mxCell id="D_7xWSGTbG8qMXm1kdTH-60" value="提供：检测是否垂悬，若否，则access对象的原子操作" style="rounded=0;whiteSpace=wrap;html=1;" vertex="1" parent="1">
          <mxGeometry x="-27.5" y="2980" width="120" height="60" as="geometry" />
        </mxCell>
        <mxCell id="D_7xWSGTbG8qMXm1kdTH-66" style="edgeStyle=orthogonalEdgeStyle;rounded=0;orthogonalLoop=1;jettySize=auto;html=1;exitX=1;exitY=0.5;exitDx=0;exitDy=0;entryX=0;entryY=0.5;entryDx=0;entryDy=0;" edge="1" parent="1" source="D_7xWSGTbG8qMXm1kdTH-64" target="D_7xWSGTbG8qMXm1kdTH-59">
          <mxGeometry relative="1" as="geometry" />
        </mxCell>
        <mxCell id="D_7xWSGTbG8qMXm1kdTH-67" style="edgeStyle=orthogonalEdgeStyle;rounded=0;orthogonalLoop=1;jettySize=auto;html=1;exitX=1;exitY=0.5;exitDx=0;exitDy=0;entryX=0;entryY=0.5;entryDx=0;entryDy=0;" edge="1" parent="1" source="D_7xWSGTbG8qMXm1kdTH-64" target="D_7xWSGTbG8qMXm1kdTH-55">
          <mxGeometry relative="1" as="geometry" />
        </mxCell>
        <mxCell id="D_7xWSGTbG8qMXm1kdTH-68" style="edgeStyle=orthogonalEdgeStyle;rounded=0;orthogonalLoop=1;jettySize=auto;html=1;exitX=1;exitY=0.5;exitDx=0;exitDy=0;entryX=0;entryY=0.5;entryDx=0;entryDy=0;" edge="1" parent="1" source="D_7xWSGTbG8qMXm1kdTH-64" target="D_7xWSGTbG8qMXm1kdTH-60">
          <mxGeometry relative="1" as="geometry" />
        </mxCell>
        <mxCell id="D_7xWSGTbG8qMXm1kdTH-64" value="特性" style="rounded=0;whiteSpace=wrap;html=1;" vertex="1" parent="1">
          <mxGeometry x="-203" y="2803" width="120" height="60" as="geometry" />
        </mxCell>
        <mxCell id="D_7xWSGTbG8qMXm1kdTH-72" style="edgeStyle=orthogonalEdgeStyle;rounded=0;orthogonalLoop=1;jettySize=auto;html=1;exitX=1;exitY=0.5;exitDx=0;exitDy=0;entryX=0;entryY=0.5;entryDx=0;entryDy=0;" edge="1" parent="1" source="D_7xWSGTbG8qMXm1kdTH-69" target="D_7xWSGTbG8qMXm1kdTH-71">
          <mxGeometry relative="1" as="geometry" />
        </mxCell>
        <mxCell id="D_7xWSGTbG8qMXm1kdTH-76" style="edgeStyle=orthogonalEdgeStyle;rounded=0;orthogonalLoop=1;jettySize=auto;html=1;exitX=1;exitY=0.5;exitDx=0;exitDy=0;entryX=0;entryY=0.5;entryDx=0;entryDy=0;" edge="1" parent="1" source="D_7xWSGTbG8qMXm1kdTH-69" target="D_7xWSGTbG8qMXm1kdTH-75">
          <mxGeometry relative="1" as="geometry" />
        </mxCell>
        <mxCell id="D_7xWSGTbG8qMXm1kdTH-89" style="edgeStyle=orthogonalEdgeStyle;rounded=0;orthogonalLoop=1;jettySize=auto;html=1;exitX=1;exitY=0.5;exitDx=0;exitDy=0;entryX=0;entryY=0.5;entryDx=0;entryDy=0;" edge="1" parent="1" source="D_7xWSGTbG8qMXm1kdTH-69" target="D_7xWSGTbG8qMXm1kdTH-88">
          <mxGeometry relative="1" as="geometry" />
        </mxCell>
        <mxCell id="D_7xWSGTbG8qMXm1kdTH-69" value="使用案例" style="rounded=0;whiteSpace=wrap;html=1;" vertex="1" parent="1">
          <mxGeometry x="-203" y="3147" width="120" height="60" as="geometry" />
        </mxCell>
        <mxCell id="D_7xWSGTbG8qMXm1kdTH-71" value="cache创建过的对象" style="rounded=0;whiteSpace=wrap;html=1;" vertex="1" parent="1">
          <mxGeometry x="-30.5" y="3147" width="120" height="60" as="geometry" />
        </mxCell>
        <mxCell id="D_7xWSGTbG8qMXm1kdTH-73" value="expired()" style="ellipse;shape=cloud;whiteSpace=wrap;html=1;" vertex="1" parent="1">
          <mxGeometry x="-27.5" y="2863" width="120" height="80" as="geometry" />
        </mxCell>
        <mxCell id="D_7xWSGTbG8qMXm1kdTH-74" value="lock()" style="ellipse;shape=cloud;whiteSpace=wrap;html=1;" vertex="1" parent="1">
          <mxGeometry x="-30.5" y="3040" width="120" height="80" as="geometry" />
        </mxCell>
        <mxCell id="D_7xWSGTbG8qMXm1kdTH-82" style="edgeStyle=orthogonalEdgeStyle;rounded=0;orthogonalLoop=1;jettySize=auto;html=1;exitX=1;exitY=0.5;exitDx=0;exitDy=0;entryX=0;entryY=0.5;entryDx=0;entryDy=0;" edge="1" parent="1" source="D_7xWSGTbG8qMXm1kdTH-75" target="D_7xWSGTbG8qMXm1kdTH-81">
          <mxGeometry relative="1" as="geometry" />
        </mxCell>
        <mxCell id="D_7xWSGTbG8qMXm1kdTH-85" style="edgeStyle=orthogonalEdgeStyle;rounded=0;orthogonalLoop=1;jettySize=auto;html=1;exitX=1;exitY=0.5;exitDx=0;exitDy=0;entryX=0;entryY=0.5;entryDx=0;entryDy=0;" edge="1" parent="1" source="D_7xWSGTbG8qMXm1kdTH-75" target="D_7xWSGTbG8qMXm1kdTH-83">
          <mxGeometry relative="1" as="geometry" />
        </mxCell>
        <mxCell id="D_7xWSGTbG8qMXm1kdTH-86" style="edgeStyle=orthogonalEdgeStyle;rounded=0;orthogonalLoop=1;jettySize=auto;html=1;exitX=1;exitY=0.5;exitDx=0;exitDy=0;entryX=0;entryY=0.5;entryDx=0;entryDy=0;" edge="1" parent="1" source="D_7xWSGTbG8qMXm1kdTH-75" target="D_7xWSGTbG8qMXm1kdTH-84">
          <mxGeometry relative="1" as="geometry" />
        </mxCell>
        <mxCell id="D_7xWSGTbG8qMXm1kdTH-75" value="观察者模式" style="rounded=0;whiteSpace=wrap;html=1;" vertex="1" parent="1">
          <mxGeometry x="-20" y="3264" width="120" height="60" as="geometry" />
        </mxCell>
        <mxCell id="D_7xWSGTbG8qMXm1kdTH-77" value="不影响对象的生命周期，但是能知道对象是否还存在" style="rounded=0;whiteSpace=wrap;html=1;" vertex="1" parent="1">
          <mxGeometry x="294" y="2713" width="120" height="60" as="geometry" />
        </mxCell>
        <mxCell id="D_7xWSGTbG8qMXm1kdTH-81" value="被观察者在状态变化时要通知观察者，所以要存储观察者指针" style="rounded=0;whiteSpace=wrap;html=1;" vertex="1" parent="1">
          <mxGeometry x="160" y="3264" width="120" height="60" as="geometry" />
        </mxCell>
        <mxCell id="D_7xWSGTbG8qMXm1kdTH-83" value="观察者对被观察者的状态变化感兴趣" style="rounded=0;whiteSpace=wrap;html=1;" vertex="1" parent="1">
          <mxGeometry x="160" y="3177" width="120" height="60" as="geometry" />
        </mxCell>
        <mxCell id="D_7xWSGTbG8qMXm1kdTH-84" value="被观察者对观察者是否存在感兴趣，但是对生命周期不感兴趣，适用weak_ptr" style="rounded=0;whiteSpace=wrap;html=1;" vertex="1" parent="1">
          <mxGeometry x="160" y="3367" width="120" height="60" as="geometry" />
        </mxCell>
        <mxCell id="D_7xWSGTbG8qMXm1kdTH-87" value="和shared_ptr的存储占用完全相同" style="ellipse;shape=cloud;whiteSpace=wrap;html=1;" vertex="1" parent="1">
          <mxGeometry x="-387.5" y="2863" width="120" height="80" as="geometry" />
        </mxCell>
        <mxCell id="D_7xWSGTbG8qMXm1kdTH-88" value="存在循环引用的数据结构中" style="rounded=0;whiteSpace=wrap;html=1;" vertex="1" parent="1">
          <mxGeometry x="-20" y="3410" width="120" height="60" as="geometry" />
        </mxCell>
        <mxCell id="D_7xWSGTbG8qMXm1kdTH-91" value="原因" style="text;html=1;align=center;verticalAlign=middle;resizable=0;points=[];autosize=1;strokeColor=none;fillColor=none;" vertex="1" parent="1">
          <mxGeometry x="690" y="1940" width="40" height="20" as="geometry" />
        </mxCell>
        <mxCell id="D_7xWSGTbG8qMXm1kdTH-94" style="edgeStyle=orthogonalEdgeStyle;rounded=0;orthogonalLoop=1;jettySize=auto;html=1;exitX=1;exitY=0.5;exitDx=0;exitDy=0;" edge="1" parent="1" source="D_7xWSGTbG8qMXm1kdTH-92" target="D_7xWSGTbG8qMXm1kdTH-93">
          <mxGeometry relative="1" as="geometry" />
        </mxCell>
        <mxCell id="D_7xWSGTbG8qMXm1kdTH-92" value="异常安全" style="rounded=0;whiteSpace=wrap;html=1;" vertex="1" parent="1">
          <mxGeometry x="807" y="1950" width="120" height="60" as="geometry" />
        </mxCell>
        <mxCell id="D_7xWSGTbG8qMXm1kdTH-104" style="edgeStyle=orthogonalEdgeStyle;rounded=0;orthogonalLoop=1;jettySize=auto;html=1;exitX=1;exitY=0.5;exitDx=0;exitDy=0;entryX=0;entryY=0.5;entryDx=0;entryDy=0;" edge="1" parent="1" source="D_7xWSGTbG8qMXm1kdTH-93" target="D_7xWSGTbG8qMXm1kdTH-103">
          <mxGeometry relative="1" as="geometry" />
        </mxCell>
        <mxCell id="D_7xWSGTbG8qMXm1kdTH-93" value="&lt;span style=&quot;&quot;&gt;std::shared_ptr&amp;lt;Type&amp;gt; spw(new Type)有两步操作&lt;/span&gt;" style="rounded=0;whiteSpace=wrap;html=1;" vertex="1" parent="1">
          <mxGeometry x="980" y="1950" width="120" height="60" as="geometry" />
        </mxCell>
        <mxCell id="D_7xWSGTbG8qMXm1kdTH-98" style="edgeStyle=orthogonalEdgeStyle;rounded=0;orthogonalLoop=1;jettySize=auto;html=1;exitX=1;exitY=0.5;exitDx=0;exitDy=0;entryX=0;entryY=0.5;entryDx=0;entryDy=0;" edge="1" parent="1" source="D_7xWSGTbG8qMXm1kdTH-95" target="D_7xWSGTbG8qMXm1kdTH-96">
          <mxGeometry relative="1" as="geometry" />
        </mxCell>
        <mxCell id="D_7xWSGTbG8qMXm1kdTH-95" value="性能" style="rounded=0;whiteSpace=wrap;html=1;" vertex="1" parent="1">
          <mxGeometry x="807" y="2030" width="120" height="60" as="geometry" />
        </mxCell>
        <mxCell id="D_7xWSGTbG8qMXm1kdTH-96" value="&lt;span style=&quot;&quot;&gt;make_shared只需要一次内存分配，否则需要两次(对象、控制块)&lt;/span&gt;" style="rounded=0;whiteSpace=wrap;html=1;" vertex="1" parent="1">
          <mxGeometry x="980" y="2030" width="120" height="60" as="geometry" />
        </mxCell>
        <mxCell id="D_7xWSGTbG8qMXm1kdTH-101" style="edgeStyle=orthogonalEdgeStyle;rounded=0;orthogonalLoop=1;jettySize=auto;html=1;exitX=1;exitY=0.5;exitDx=0;exitDy=0;entryX=0;entryY=0.5;entryDx=0;entryDy=0;" edge="1" parent="1" source="D_7xWSGTbG8qMXm1kdTH-99" target="D_7xWSGTbG8qMXm1kdTH-100">
          <mxGeometry relative="1" as="geometry" />
        </mxCell>
        <mxCell id="D_7xWSGTbG8qMXm1kdTH-99" value="软件工程" style="rounded=0;whiteSpace=wrap;html=1;" vertex="1" parent="1">
          <mxGeometry x="807" y="1860" width="120" height="60" as="geometry" />
        </mxCell>
        <mxCell id="D_7xWSGTbG8qMXm1kdTH-100" value="&lt;span style=&quot;&quot;&gt;make_shared 语句中只包含一次类型&lt;/span&gt;" style="rounded=0;whiteSpace=wrap;html=1;" vertex="1" parent="1">
          <mxGeometry x="980" y="1860" width="120" height="60" as="geometry" />
        </mxCell>
        <mxCell id="D_7xWSGTbG8qMXm1kdTH-103" value="&lt;span style=&quot;&quot;&gt;编译器将该语句中别的指令插入new和shared_ptr的构造函数之间会导致异常时的内存泄漏&lt;/span&gt;" style="rounded=0;whiteSpace=wrap;html=1;" vertex="1" parent="1">
          <mxGeometry x="1161" y="1950" width="120" height="60" as="geometry" />
        </mxCell>
        <mxCell id="D_7xWSGTbG8qMXm1kdTH-106" value="我觉得是语言设计没有完善，查一下c++14之后是否支持" style="ellipse;shape=cloud;whiteSpace=wrap;html=1;fillColor=#ffe6cc;strokeColor=#d79b00;" vertex="1" parent="1">
          <mxGeometry x="920" y="2170" width="120" height="80" as="geometry" />
        </mxCell>
        <mxCell id="D_7xWSGTbG8qMXm1kdTH-108" value="initialize_list作为构造函数参数" style="rounded=0;whiteSpace=wrap;html=1;" vertex="1" parent="1">
          <mxGeometry x="780" y="2270" width="120" height="60" as="geometry" />
        </mxCell>
        <mxCell id="D_7xWSGTbG8qMXm1kdTH-118" value="重载了new和delete的类" style="rounded=0;whiteSpace=wrap;html=1;fillColor=#ffe6cc;strokeColor=#d79b00;" vertex="1" parent="1">
          <mxGeometry x="1020" y="2330" width="120" height="60" as="geometry" />
        </mxCell>
        <mxCell id="D_7xWSGTbG8qMXm1kdTH-119" style="edgeStyle=orthogonalEdgeStyle;rounded=0;orthogonalLoop=1;jettySize=auto;html=1;exitX=1;exitY=0.5;exitDx=0;exitDy=0;entryX=0;entryY=0.5;entryDx=0;entryDy=0;" edge="1" parent="1" source="D_7xWSGTbG8qMXm1kdTH-120" target="D_7xWSGTbG8qMXm1kdTH-121">
          <mxGeometry relative="1" as="geometry" />
        </mxCell>
        <mxCell id="D_7xWSGTbG8qMXm1kdTH-120" value="本身很大的类，有weak_ptr指向它, weak_ptr比shared_ptr晚析构" style="rounded=0;whiteSpace=wrap;html=1;" vertex="1" parent="1">
          <mxGeometry x="1020" y="2420" width="120" height="60" as="geometry" />
        </mxCell>
        <mxCell id="D_7xWSGTbG8qMXm1kdTH-121" value="析构最后一个shared_ptr时因为控制块还在使用没法析构对象和控制块" style="rounded=0;whiteSpace=wrap;html=1;" vertex="1" parent="1">
          <mxGeometry x="1220" y="2420" width="120" height="60" as="geometry" />
        </mxCell>
        <mxCell id="D_7xWSGTbG8qMXm1kdTH-122" value="原因" style="text;html=1;align=center;verticalAlign=middle;resizable=0;points=[];autosize=1;strokeColor=none;fillColor=none;" vertex="1" parent="1">
          <mxGeometry x="1160" y="2425" width="40" height="20" as="geometry" />
        </mxCell>
        <mxCell id="D_7xWSGTbG8qMXm1kdTH-124" style="edgeStyle=orthogonalEdgeStyle;rounded=0;orthogonalLoop=1;jettySize=auto;html=1;exitX=1;exitY=0.5;exitDx=0;exitDy=0;entryX=0;entryY=0.5;entryDx=0;entryDy=0;" edge="1" parent="1" source="D_7xWSGTbG8qMXm1kdTH-123" target="D_7xWSGTbG8qMXm1kdTH-118">
          <mxGeometry relative="1" as="geometry" />
        </mxCell>
        <mxCell id="D_7xWSGTbG8qMXm1kdTH-125" style="edgeStyle=orthogonalEdgeStyle;rounded=0;orthogonalLoop=1;jettySize=auto;html=1;exitX=1;exitY=0.5;exitDx=0;exitDy=0;" edge="1" parent="1" source="D_7xWSGTbG8qMXm1kdTH-123" target="D_7xWSGTbG8qMXm1kdTH-120">
          <mxGeometry relative="1" as="geometry" />
        </mxCell>
        <mxCell id="D_7xWSGTbG8qMXm1kdTH-123" value="shared_ptr会将控制块和对象一起分配内存" style="rounded=0;whiteSpace=wrap;html=1;" vertex="1" parent="1">
          <mxGeometry x="780" y="2370" width="120" height="60" as="geometry" />
        </mxCell>
        <mxCell id="D_7xWSGTbG8qMXm1kdTH-131" value="结合优点" style="text;html=1;align=center;verticalAlign=middle;resizable=0;points=[];autosize=1;strokeColor=none;fillColor=none;" vertex="1" parent="1">
          <mxGeometry x="-860" y="2040" width="60" height="20" as="geometry" />
        </mxCell>
        <mxCell id="D_7xWSGTbG8qMXm1kdTH-133" value="对比" style="text;html=1;align=center;verticalAlign=middle;resizable=0;points=[];autosize=1;strokeColor=none;fillColor=none;" vertex="1" parent="1">
          <mxGeometry x="-577.5" y="1590" width="40" height="20" as="geometry" />
        </mxCell>
        <mxCell id="D_7xWSGTbG8qMXm1kdTH-140" style="edgeStyle=orthogonalEdgeStyle;rounded=0;orthogonalLoop=1;jettySize=auto;html=1;exitX=1;exitY=0.5;exitDx=0;exitDy=0;" edge="1" parent="1" source="D_7xWSGTbG8qMXm1kdTH-136" target="D_7xWSGTbG8qMXm1kdTH-139">
          <mxGeometry relative="1" as="geometry" />
        </mxCell>
        <mxCell id="D_7xWSGTbG8qMXm1kdTH-136" value="在头文件中，使用指向实现类的指针代替成员" style="rounded=0;whiteSpace=wrap;html=1;" vertex="1" parent="1">
          <mxGeometry x="630" y="3070" width="120" height="60" as="geometry" />
        </mxCell>
        <mxCell id="D_7xWSGTbG8qMXm1kdTH-138" value="定义" style="text;html=1;align=center;verticalAlign=middle;resizable=0;points=[];autosize=1;strokeColor=none;fillColor=none;" vertex="1" parent="1">
          <mxGeometry x="580" y="3080" width="40" height="20" as="geometry" />
        </mxCell>
        <mxCell id="D_7xWSGTbG8qMXm1kdTH-139" value="可以将头文件的依赖转移到.c文件，从而减少头文件用户需要重复编译的可能" style="rounded=0;whiteSpace=wrap;html=1;" vertex="1" parent="1">
          <mxGeometry x="840" y="3070" width="120" height="60" as="geometry" />
        </mxCell>
        <mxCell id="D_7xWSGTbG8qMXm1kdTH-141" value="优点" style="text;html=1;align=center;verticalAlign=middle;resizable=0;points=[];autosize=1;strokeColor=none;fillColor=none;" vertex="1" parent="1">
          <mxGeometry x="767" y="3080" width="40" height="20" as="geometry" />
        </mxCell>
      </root>
    </mxGraphModel>
  </diagram>
</mxfile>
